<?xml version="1.0" encoding="utf-8"?>
<!-- Generator: Adobe Illustrator 24.2.0, SVG Export Plug-In . SVG Version: 6.00 Build 0)  -->
<!DOCTYPE svg PUBLIC "-//W3C//DTD SVG 1.1//EN" "http://www.w3.org/Graphics/SVG/1.1/DTD/svg11.dtd" [
	<!ENTITY ns_extend "http://ns.adobe.com/Extensibility/1.0/">
	<!ENTITY ns_ai "http://ns.adobe.com/AdobeIllustrator/10.0/">
	<!ENTITY ns_graphs "http://ns.adobe.com/Graphs/1.0/">
	<!ENTITY ns_vars "http://ns.adobe.com/Variables/1.0/">
	<!ENTITY ns_imrep "http://ns.adobe.com/ImageReplacement/1.0/">
	<!ENTITY ns_sfw "http://ns.adobe.com/SaveForWeb/1.0/">
	<!ENTITY ns_custom "http://ns.adobe.com/GenericCustomNamespace/1.0/">
	<!ENTITY ns_adobe_xpath "http://ns.adobe.com/XPath/1.0/">
]>
<svg version="1.1" id="Layer_1" xmlns:x="&ns_extend;" xmlns:i="&ns_ai;" xmlns:graph="&ns_graphs;"
	 xmlns="http://www.w3.org/2000/svg" xmlns:xlink="http://www.w3.org/1999/xlink" x="0px" y="0px" viewBox="0 0 176 38"
	 style="enable-background:new 0 0 176 38;" xml:space="preserve">
<style type="text/css">
	.st0{fill:#1E83F0;}
	.st1{fill:#1B66AA;}
	.st2{fill:#459AE5;}
	.st3{fill:#333333;}
	.st4{fill:url(#SVGID_1_);}
	.st5{fill:url(#SVGID_2_);}
	.st6{fill:url(#SVGID_3_);}
	.st7{fill:url(#SVGID_4_);}
	.st8{fill:url(#SVGID_5_);}
	.st9{fill:url(#SVGID_6_);}
	.st10{fill:url(#SVGID_7_);}
	.st11{fill:url(#SVGID_8_);}
	.st12{fill:url(#SVGID_9_);}
	.st13{fill:url(#SVGID_10_);}
	.st14{fill:url(#SVGID_11_);}
</style>
<metadata><?xpacket begin="﻿" id="W5M0MpCehiHzreSzNTczkc9d"?>
<x:xmpmeta xmlns:x="adobe:ns:meta/" x:xmptk="Adobe XMP Core 6.0-c002 79.164460, 2020/05/12-16:04:17        ">
   <rdf:RDF xmlns:rdf="http://www.w3.org/1999/02/22-rdf-syntax-ns#">
      <rdf:Description rdf:about=""
            xmlns:xmp="http://ns.adobe.com/xap/1.0/"
            xmlns:xmpGImg="http://ns.adobe.com/xap/1.0/g/img/"
            xmlns:xmpTPg="http://ns.adobe.com/xap/1.0/t/pg/"
            xmlns:stDim="http://ns.adobe.com/xap/1.0/sType/Dimensions#"
            xmlns:xmpG="http://ns.adobe.com/xap/1.0/g/"
            xmlns:dc="http://purl.org/dc/elements/1.1/"
            xmlns:xmpMM="http://ns.adobe.com/xap/1.0/mm/"
            xmlns:stEvt="http://ns.adobe.com/xap/1.0/sType/ResourceEvent#">
         <xmp:CreatorTool>Adobe Illustrator 24.2 (Macintosh)</xmp:CreatorTool>
         <xmp:CreateDate>2020-11-11T12:02:38+05:30</xmp:CreateDate>
         <xmp:Thumbnails>
            <rdf:Alt>
               <rdf:li rdf:parseType="Resource">
                  <xmpGImg:width>256</xmpGImg:width>
                  <xmpGImg:height>56</xmpGImg:height>
                  <xmpGImg:format>JPEG</xmpGImg:format>
                  <xmpGImg:image>/9j/4AAQSkZJRgABAgEASABIAAD/7QAsUGhvdG9zaG9wIDMuMAA4QklNA+0AAAAAABAASAAAAAEA&#xA;AQBIAAAAAQAB/+4ADkFkb2JlAGTAAAAAAf/bAIQABgQEBAUEBgUFBgkGBQYJCwgGBggLDAoKCwoK&#xA;DBAMDAwMDAwQDA4PEA8ODBMTFBQTExwbGxscHx8fHx8fHx8fHwEHBwcNDA0YEBAYGhURFRofHx8f&#xA;Hx8fHx8fHx8fHx8fHx8fHx8fHx8fHx8fHx8fHx8fHx8fHx8fHx8fHx8fHx8f/8AAEQgAOAEAAwER&#xA;AAIRAQMRAf/EAaIAAAAHAQEBAQEAAAAAAAAAAAQFAwIGAQAHCAkKCwEAAgIDAQEBAQEAAAAAAAAA&#xA;AQACAwQFBgcICQoLEAACAQMDAgQCBgcDBAIGAnMBAgMRBAAFIRIxQVEGE2EicYEUMpGhBxWxQiPB&#xA;UtHhMxZi8CRygvElQzRTkqKyY3PCNUQnk6OzNhdUZHTD0uIIJoMJChgZhJRFRqS0VtNVKBry4/PE&#xA;1OT0ZXWFlaW1xdXl9WZ2hpamtsbW5vY3R1dnd4eXp7fH1+f3OEhYaHiImKi4yNjo+Ck5SVlpeYmZ&#xA;qbnJ2en5KjpKWmp6ipqqusra6voRAAICAQIDBQUEBQYECAMDbQEAAhEDBCESMUEFURNhIgZxgZEy&#xA;obHwFMHR4SNCFVJicvEzJDRDghaSUyWiY7LCB3PSNeJEgxdUkwgJChgZJjZFGidkdFU38qOzwygp&#xA;0+PzhJSktMTU5PRldYWVpbXF1eX1RlZmdoaWprbG1ub2R1dnd4eXp7fH1+f3OEhYaHiImKi4yNjo&#xA;+DlJWWl5iZmpucnZ6fkqOkpaanqKmqq6ytrq+v/aAAwDAQACEQMRAD8A9U4q8d/MjzYdWvDplswO&#xA;mWx3I3E0lPte6ivw/f4Zv+y8MRDjG5Nj3UaP2h0vaGYmXB0DAItFuZ7yOK3HKGRqOx6xjxPiPxzN&#xA;7Q7Zho8JyZN6Gw6k936+5xtHoJajIIR+J7kATGXb0jySpCnxFc2mDIZY4ylVmIJ7uW7h5I1Igd7I&#xA;rHyZczQrJczCAsKiMLyI8K7jOF1/t7jx5DHDDxIj+K6v3CnptL7LznESyS4CelX+lLdY0O60x19Q&#xA;iSF/sSr0JHYjsc6HsL2iw9oxPCODJHnE/eD1H47nVdp9k5NIRfqieRQMMMs8yQwoZJZGCRooqWZj&#xA;QAD3zfykALPJ1YBJoPoP8vfJcXlrSgZgG1S6Aa7lG/HuIlPgvfxP0ZxXaWuOee30Dl+t6bRaUYo7&#xA;/UebK81zmOxV2KuxV2KuxV2KuxV2KuxV2KuxV2KuxV2KuxV2KuxV2KuxV2KuxV2KuxVgX5mecPqU&#xA;B0WxcC7uF/0uQHeOJh9n/WcfcPmM2nZ+lv8AeSGw5ebrtdqa9A5nmwPVNKZoUkh+KSNQjgD7QUUr&#xA;885X2e9oo4ssseX048kjIH+aT+g/YfeXd9sdjGeOM8e84RAP9ID9KrocXp2nMijSEknvQbDML2s1&#xA;fjavhB9MAB+k/jycz2e0vh6fiI3mb/QGJarorWuptPbDjSQNLB+y6cq1HvTO/wCztUdRoRLGfUcd&#xA;f51V97yGswDDqjGY2Er+F39zOL/UobGBJ5QWhZwrOu/ENWjfLPJezuzcmryHFAjxOEkA7cRH8I86&#xA;vn3PfazWQwQE5fTYBI6X19yA12a1v9BuHt3WYR8XqpqVII7dtvHN37PYc2j7TxRyxljMiRuKuwR8&#xA;RbrO1smPUaOZxkSqjt0/AZR+UnkT6vEnmLUY/wB/Kv8AuPhYfYRv92keLD7Ptv329D7Y7Q4j4UOX&#xA;X9Ty3Z2kr95Ln0ehavrVjpUAlumNWqI41FXYjrQZyuq1kMEbl8nfafTTymosbf8AMZAx4WBZexaW&#xA;h+4Ic059oB0h9v7HZjsc9ZfZ+1N9F826dqkogo0FyfsxvQhqfysOuZ+j7Vx5jw/TLucPU6CeIXzi&#xA;nebNwXYqkvne+u9P8l6/f2chhu7TTbue2lABKSRQO6MAQRswrviqV/lJrOp61+Xei6pqk5ub+5jk&#xA;aedgoLFZnUbKFHRR2xVl2KuxV2KuxV2KuxVD6iSNPuiOvpSf8ROKvNf+cbZZZfyxgeV2kf63cDkx&#xA;JP2h3OKp3N5K11/zcg83LcwjRo9ONm1rzk9YykseXDh6fH4uvKuKs3xV2KuxV2KuxV2KuxV2KuxV&#xA;5z57/LuS4km1bSAzzuTJdWhJJYndmjr3/wAn7vDNxoe0KqE+XQur1eiu5R+TG7KVpLWNmrzA4uDs&#xA;Qy7Go+eeW9raXwNVkgBQEtvcdx9j3XZ2fxcEJczW/vGx+1e9vExLUKserKSpPzp1+nMWGpnEVzHc&#xA;QD8r5fBvlgiTfI+Rr7ufxQt3pKXNC0zcl2DEKdvoC5uuy/aKejJ4YR4TzFy+e5IB9wdXr+xo6muK&#xA;ZscjQ/QA3awhoDp9/GsyAUUNusiDen0ZDtDPA5hrNMeGzZHWE/0iXP5jbknR4pDGdNnF0KB6Sj+s&#xA;PQdH8reTdQ031bGwjtpHASZUqSCOqsCfiU+/UZ0f546/HGRl6oEEd8ZD8fF1X5QaWZiBtIV5SDLw&#xA;AAABQDYAZlNTEvONih1OwvrsM2mpSO4478aMTuBvRq5oO1sI8WE5/wB3yLt+zsv7uUI/X0TrSzpl&#xA;xpq3MdiLeBgWEbRqCVHQ0ANajNlpvCnj4hDhj3U4WfjjPhMrPveeeePNXlvRbaDX7GIpLA3NrRR6&#xA;ZklDARRgKGAZyD0HTc5o5+FlzYzgFSuz0qi7SPiY8UxlNitvi1HH+fWo2y6le6xpHliKUBksDD6r&#xA;IGFQsrShgHHejZ008kYC5EAebo4wMjQFq+gebvzM03XrLSfMdnaeYNOvpBDHrWiHk0LkE8rmLbig&#xA;pu3FQPE9Mjjzwn9MgfcbZTxSj9QIRn5xr56k0G9t9Bn0xNMuNPuor+2vDL9bm5xsClqEBUuyGig/&#xA;tY5c0Mf1ER96IYpT+kEsS/K6x/O+HybpMGly6Hb6XCGVba+W6F4i+qxZZAqFQ25I9qZLHkjMXEgj&#xA;yROEomiKegfmz5rv/LPkLVtY0mWJdSs/q/pCQBwPVuY4mqlf5XOHjF1e6OE1bIPLV9cah5c0q/uC&#xA;DcXdnbzzFRQc5IldqDtuckhGXF5aW9DcTxw16eoyr+sjK8maEPqIHvNM4Y5S5AlhH5cebPMet6/5&#xA;utNWULZ6ZfmHR2EXp87X1JQrhv8AdgKovxDHHmhP6ZCXuNrPHKP1AhNfzC/MHRfJGhnU9RrLNITH&#xA;ZWUZAknlpXiteij9pu3uaA2MGB2t3/zkLrtp+mPrWk+VbKUcreyuk5SBT9kyF0mKk+5B/wAkZGc4&#xA;xFyNBlGJkaAtWsvzP8zaTKdH8/W1osN4rQ2XmLTH52bSspCxzg7xFj0YhR7UqcrxajHk+mQl7iyn&#xA;inH6gQrf841yxJ+WFuruqs13c8QSAT8Q6ZYZgGiWAiSm8/nTXE/Oq38oq0f6Hk0w3jJwHqeqC4+3&#xA;4fD0ySE986+c4/LekvdW9lLq99zWKLTrUr6hZ60Z6mqoKfE3E08MonqcUTUpRB94bI4ZyFiJI9zE&#xA;YLf8/tbQXp1DSPLkMgrDYxx/XJAp6epIRIhP+q1PYZcCCLDAiuaDtvzH88+T/MVno35hxWl1pmoS&#xA;CG18w2Hwokh2AnTbj1FfhWm5HIDYCcSavdeE1b1x5EjUs7BFHVmNB+OGUgBZ2UAnk8a0X87dTg0D&#xA;UG1G0bVfMsus3Wm6Fo9pHwkljhjidWcAMQq+pu1P7GMgRYUgjmy/yDP+bN1fz3fnOCwsdPkh/wBF&#xA;sLQlpklLAjm1ZBThWvx9cKEq81/mlrUvmKTyn5D01NV1uBuGoX9yStjaN3R2BXk47jl12+I1AiZg&#xA;GiUiJKjJo/8AzkHbw/WR5k0a4nX4jYvblIW78BKEV/l0+eEkDmoFpr5D/M6TWdVuPLPmPTzofm6z&#xA;HKSwZuUc6AVMlu/cU3pU7bgnehQzDWXuo9MnltW43ESiRPfgQxX6QKZjawzGKRh9Q3+TfphE5AJc&#xA;i841a9tNRm+uxWwt7p/96wpqrsBs4Xx8fozke0Nb+Z4ZEVKO34615dPi7/SaTwCQDsUvrmsc1uuB&#xA;WnTmtK0Ybq3gcnjnwny6+Ya8kOIeaM0XW7uwl+s2tCw+GaFj8LUO6n+BzP02aWkzA/wGvjE9ff8A&#xA;cdu9xMsBqMRr6h9kh0/HveiaB5i03XLT17R6SJtPbvtJG3gw/Uc77JiMaPOJ3B6EPL48olfeOY7m&#xA;J+eJQuvw+sfWt40Qm3BK0FasPbl45x/bMqzi94gDb8d70vZkf3JrY96la6ytnbLbQ3PpQ3ppOsfJ&#xA;vq4Mgqy1ruYya8crx6wY48MZUJ86v07/AKu5nPTccuIizHl/S2/WkWpfvVlFrai8eJXZIYgWacoS&#xA;6hEk3LHYAdT88xMcTPMBjoG+fx8/7XIyERxkz5Vy/sTa381xajLNfahboL9Yozb2E1ZYoSwBdGA4&#xA;kt4EjM3LrYyySnMXX0A/T5/FxMelIhGMTX86uafK2iazoQ1fR5rZb61j9Uy2UiMEdRVo39MkdiKN&#xA;m0z6aMsIyxHh5BHi22+DgYs5jlOMnjgTW6ReYvrF7Fb6tJKoS6iChOQDK0fwPxU9uQrmj1/FkEcx&#xA;I9Q5e7Y7d1u00lQvGB9J+/khfLt3No+ix/V5pZpWheGS6fk3IgqEkL1IL/bNfoww1UsQMoijIHkK&#xA;A5V8RuiWATIjLcCuu/n89lbV/LVsdEbUPrUV/ZSER3SutBykYJxIevKrMBuO+DLoDHH42OfFXOti&#xA;FhqxKfhzjwp7a+YlsfKWn29mgFyqCzt4+vEQqEDb9fh4/Tm0Pa0hpokf3stvl1cEdnjxiD9A3/Yp&#xA;2V/5UtgTfcr6+J/fzyoZQW78eW1PDKMOo0kP7z15OpIv5NuTFqJfR6Y9ANmJeSrHVW13zI11cSK1&#xA;xqDz+WjGeQjt2eRgjAfYXjxFD0wylpssh4AMMvQgbfFiBmxj95UodbKX2Dt55/Pi2/ScYay8r6at&#xA;zFbtvG1yShD8fHnMG/2AzeaHUeNhjM8y63VYfDyGL07zxYzXFlDMkipFbsxkV24g8qAEeJFM1vbu&#xA;CU8YkDQjzcvszKIyIrcsI1DTbLV9CubC9t+UEkXpERx7kFiWkL0IqB9mvQgHtmi0uUxqYG8a5Dz3&#xA;s+7Z2efHxXG/q7z8q+Kp5S8nW/6CNpprrC2nj04rRgKugUH1OQPV2J7deuXQ0Z1YlkE7yc+FrlqB&#xA;gIhw1DvSAWmqL+Y1lrsUjtINMmsa7llKyKFAPWpExp8sng7UyR05x/x2BHv3/V097HJooHKJfw8y&#xA;z2x1vy9Z8jdx20Wlwwere3t0AHRwKMZHeq/E2wA8cyuzsmKeQY4wjKPDuSPVfW/i0auE4wMzIg3s&#xA;Adq8klsfzE8vXJ1F/K81xd6WVMZ9OGRFWdwRyh9XhUD9qnQfRktV/gmQxgahkidv5prp+PuRh/fx&#xA;EpC5QI+ISfzFKzeW7uO3sfr165VkhNCJVJAMTB/hANfiJ3p03pmj0soWBL0m74t9vdXV2OcSqxuK&#xA;5MkuNUW6tIjcSeq8CpCltJzNVWPiZOQ25F9zU1zI1Gu8aPFM2Rtw79257ubVi03hmo8u/wCPL5KH&#xA;lp9JtLm+1tbNZdZh4afbTNGwf94PUZVJA5L9ndflXrmV2dqJafBKfPiIER59f0NGqxRy5RHlQ3Pk&#xA;nU/mHzHZmVbzgCyFeKhOUbyITGdvlWhycu09VhJ8SvdtsSNmI0eHIPRf6+9hukMY9HjWe2W3n5vI&#xA;yLUlFLNRDTZjSjE+OanUESNAiRP8X6783NxAgWRQHRN7f8wvyymcSat5ms7j9wkXosz1RwByIant&#xA;nU4uzDMiWY8foAruPvdNPWcO2P0+olgv5oa1pdna6F5r027WW+0fUY20q5Wtbixfkzxctqr8IIB7&#xA;M3jkeycpjOeAm+A7e5OtgDGOQD6hv730PPCk0MkL/YkUo1NtmFOubmcBKJB6uDGRiQR0eT3NtJp1&#xA;/JBdIy+mSrqNyVPcGm9R0NM4KeE4shjLZ6wZBOHFHdCB0apU1GY8okFtBBC6uQS3XAhThi9N5m7S&#xA;PyA/2IH6xmTqNR4kccf5keH/AGUpfpcfDg4JTP8AOlf+xA/Qkw1S+0nXJLvT5jDMjdR0INCysOhB&#xA;z1fsGPi9n4xPfb7iQPsfP+1ZHHrJmPf943Z0vnE6kljrE2n84YOcE0Tj9361AeSMa/s9Kjb8c5jt&#xA;/GdLnhIgThR/Hv7nouxsg1GKQB4ZK1150LXED2dosFvES00Xw/vK7UNF2zS5e2LkDCNRHMd/2O0x&#xA;9m+kiUrJ5eS678wDW7qxtbWxEUqzo4kBBYUO9KAUHc4cuu/MyhCEKPECjHpPAjKUpWKQd+W0q5ut&#xA;M1Cwt9QsZXZ0huoxIhV9qryB6jY5A6jJo8koECUbsX94ZDDDUwEgalVGmGt5d8q6XrL6/plp+hj6&#xA;TRzw280i27B9iWjJp7cfs+1chqO1c2ceGBXF3cynFoMeE8ZPLvZf5z8rTpo0VpKWNrPZyWdw6blG&#xA;m586Egj/AHaeJyes02TTeHMb8I+2yf0sdPnhn44n+I/ZVKPlHVIPLvkyx8uC3F61gGEc8tApJlaR&#xA;WKUO68vHLsvbolCjDfz5X8muHZRjK+LZF6lpF+/5fXnMGOSe9sblVOx9OG8gkY026qhyzSYzj0eS&#xA;U9uK/tFD7WvUTE9RAR/hpL4J40XTbpXEtvVpKqQw5Rzsjrt3Bj3zTSicRxmXL6vt/UHZCQnxge77&#xA;Ew8yQT2+utczJ6ttKyyQk/YePYhQfltl/aUJQ1HHIXEmx3EdzTo5CWLhG0hz96W+U9b8wWM2uNeQ&#xA;WivqFwX04WhZVjR3kdjLzAHL94Om3U5kx7Sxw4jiEuPJ/Oqh7v2tB0c5cIyEcMe7mUheeHyB+cOm&#xA;azeTo+heZrH6hcXysGiiuEK7FhtRWSPc9mJ7Zv8As7FHHhjEES8x3uq1kzLISRT1fzrY3F1pSPAC&#xA;/oP6joN6qQRUDvTMTtzBLJhBjvwm3I7Nyxjko9QkyedmOltZzWoZzEYhIrUBqvGpWhzXYu3qhwyh&#xA;e1c+bl5Oy7lcZUhPyq0KXTYj++kuIYI3SW6mbk8k0jiVyxPua+22WdjiWTNLNXDCq8um3wph2gYw&#xA;xjHdyu2M3WsNN58j0qx5PNLBdXwRBuFSVfTYfQr5r46SeWOTLDpKx9vL7HLOeMDHHLrHdU84Wx82&#xA;XGmLqzV02wl9e502IcIruQfZM5B5Hj7eJ8cuh29kiPpjfe1S7Liepplnl63vdU1KO69NIbWyThBH&#xA;GgSFKAhI0UbUFa5PQ+Nq8/iy5R+XkGOp8PBj4B1Y95thXWPJ175ZeIWV/K8YOoqKyKUnWSSo+Fqs&#xA;qlftd/DK9P2nHDHgnjBmOvn57MsujOSXFGfpKd6B5mXS9NhsJrb6yluixwOSAQiqFVTUGtKdcOm7&#xA;bMAROPEb936EZuzhI+k0gPLoe2sZruFxdnTLmIzqxqQWVmo1OlA609qZDGZ8B1Aj6RkuujKYjxDE&#xA;TuY1aM8y61p2t6dPaNYBWu4zDcSkjmY2BDKGADCoPUEHJartiM94Q4cn87Yn7mOHQGO0pXHuSPyr&#xA;Z6bovlW30d7C3vNUgEkS6sYUWZkdyykmjPzCtx+12+jDqe2I5cRgMfql+NtkYtAYT4jLYJhdaPoV&#xA;nf8AC+0uAOggd4lgi4SkIC4kBG/J+rb98ry6meLLHxDK4CFAcvp3HxPXdlDDGcDw1UuL72/L0/ky&#xA;fzBHoWqQ2kl7dxtLp2lPbiRAqVLMi8GSMKFIFad6dDmd2FGc8k80uv3k2XH7RMYxjAdHoOtaxZaP&#xA;ps2oXjUhhGyj7TsdlRR3LHbOqx4zM0P7PN0s5iIt4n/iXV9S1Ke6vrUkXDloyhX4FJ+FNyKgZqu3&#xA;+ztHL14c3rA3jLi392xr3cvc53ZOu1EfTkx+k8iK/Xv96ZLvuBSviKH8c4mW2z1IIO68K2RtbbAO&#xA;C1Q95cyQoRHGZJew7D55seztHjzTHiTGOHU72fdtz97r9drJYo+iPHP8c0v8veXb/X9ZW0Wqgn1L&#xA;qc9ESu7e5PYZ65j1GHFpwcf0AVH8fe+enDky5Tx/Udy9xtdJ06206PTooE+pxKEWFgGBA3qa9STu&#xA;T45zuc+KTx+q3e4h4YHDtTcOlaZAjpFaRIsgpIAi/EPA7bjMeGlxRBAjHfybpZ8kjZkdvNi/nT8r&#xA;9H8x29s1rcTaJqlg5l0/UbBjG0ch7silQ/3g+BG+HHp8cPpiB7gieac/qJLHJPLf59RRfU/0v5f1&#xA;q2TaO41K3mSYj3WGNlr71JyWTFCYqQBHmiGSUTcTTfl/8n9Zudcttc88arDqElk6y2ej2EXo2KSI&#xA;aq77IZSp3HJfmSNsji0+PH9MQPgynmnP6iS9M1Cxgv7C5sZ+XoXUTwy8TRuMilTQ9jQ5aQCKLWDT&#xA;x2x/KX83NIlltNK83Wj6azH0ru8tlnvEU/ytJHKQaf8AFlPCmUR0mEGxCN+4Np1GQijI/N6RpPk2&#xA;K30qCz1W9n1eZUAuZpWZFlk48TKYwzUZv9Y5T/J+PiJPFLe6J2v3Nn5ydUKG1WBu890j8nfMXla6&#xA;vItN1FdR8tNymtrKYst1BISKhAFZHqPtbrXwr1xe2NCc0BKP1R+0N/Z2pGOVS5Sai0aw1fzDY3Hm&#xA;bUr2XStNCmz0jlS0EyE0aVVAZhQ9DXw+ztmt7O7VjGPhZuQ5H9BczWaEyPHj5prpHkrS9P8AOOsa&#xA;1LrttcaLqci3UdgWHqRSKSTGBUj0/iPQV7e+bDUx0mUxkZxAj0sb/BxMJzwBAibPXfZNh5D0bzLo&#xA;OpadrFszaTezepYruksXDkEmjJqVajd+veoOHsfAYCchtCUvSPLvR2hkEjEfxAb+9jOn/l9+dvll&#xA;P0f5Z81WV9o0Y42sWro/qRKOiqVjmNANvtU8AM3Lrk38r/ll5kOsLrnnXXf0ldpvHpdigt7EHxkC&#xA;rGZvkyj35ZjS0eEmzCN+4Nw1GQChI/NEfl/+V1z5ZttQsb3U5L6yluHeyKM8b+hJuyT7/EeXgd8q&#xA;y6CE5cRMhtVA0K7mcNVKIrbnfJEj8u5o/wA0bbzhBPFFYW+nGwFiqkPyJY8gfs0+LMvHjjCIjEUA&#xA;0SkZGzzTLzt5GtvMuky2tvdy6RqBYPDqNp8LhhUUcArzU13FfpymejwyNyhEn3NkdRkiKEj82I2G&#xA;g/8AOQdhbLYRa1oE9rEOEV5NFOLjgNgxRIhHy+dfnl8YiIoCg1GRJsosflNrN1peqyax5pvL3zHq&#xA;UPpw36fuLe1YUKmG3jKr1FC1a06UynJpMUzcoxJ9zZDPOIoEgMm8peVptO8saZp2uvDqmpWMIhkv&#xA;SgbmqEhN2HI0Sg3xnpMUq4oxNeQWOeceUj80u/LTyFeeUrXWoby6jvTqt/LeqUVgFSRQODcup2y4&#xA;RFVWzXZu2VQ6XpsMnqRWsSP/ADKig7+G2Uw0mGBuMIg+4Nks85CjI/NiPnT8trjVp7fUvLms3Hl3&#xA;WLQ8ongJa1kI7S29Qh+f3hsYaPDGXFGMQfcss85CjI0x+78sfn5folvd6p5dVV+H9ILBLJchfEJJ&#xA;F6Vfbpksumx5Dc4iVd4RDLOP0khkX5f/AJXab5UnuNUuLqTV/Md8ON5q9wKNx2/dxJVhGnwjav4A&#xA;AWRiIigKDAkk2WDfmRqnmPzFqf1e1068Gk2bEW49CUeo/Qykce/7PgPmc6/szFiwQsyjxy57jbye&#xA;e12TJllQB4R5faxO20bzLbsXj0u7DkUD+jMCPkVAy3XYdPqQIzmOEHl6CD7xIFq008uEkxib7/UD&#xA;9hCMtU86QMK2N7KgO6yQzGv00rmq13s92bnBrgxy748I+zk7DTdr63ERfFMd0r+/miprrze8fGPS&#xA;LmJv5xDOT9xFM1Wn9jtFCdzy8ce70j7Ru5mb2g1Uo1GHCe/coeeLzlLb8fq+oJLX9i2dQP8AZAV/&#xA;DM3D7PaCGa+DGcfnMk/6Ujh+1xsnauqljrinxf1a+27+xfZ6Z5pvZooZ7C7NwzBI3kjkCksaD4nF&#xA;F+k5sxp9LhiRAY4xPPhoX8nAlPPkIMuMkcrs/e9y8reXYND0xLcUe6ejXc46u9O3T4V6KP4k5zUz&#xA;G6gKj0DvccSBvvLqnGQbHYq7FXYq7FXYq7FXYq7FUBe6DpF65e5tUeQ9XFUY/MqQTmJm0GHKblEE&#xA;/L7nIx6rJAVEqdt5a0K2kEkVonMbguWeh9uZbIYuzNPA2IC/n97KetyyFGSZ5nOK7FXYq7FXYq7F&#xA;XYq7FXYq7FXYq7FXYq7FX//Z</xmpGImg:image>
               </rdf:li>
            </rdf:Alt>
         </xmp:Thumbnails>
         <xmp:MetadataDate>2020-11-11T12:02:38+05:30</xmp:MetadataDate>
         <xmp:ModifyDate>2020-11-11T12:02:38+05:30</xmp:ModifyDate>
         <xmpTPg:MaxPageSize rdf:parseType="Resource">
            <stDim:w>62.088889</stDim:w>
            <stDim:h>13.405556</stDim:h>
            <stDim:unit>Millimeters</stDim:unit>
         </xmpTPg:MaxPageSize>
         <xmpTPg:NPages>1</xmpTPg:NPages>
         <xmpTPg:HasVisibleTransparency>False</xmpTPg:HasVisibleTransparency>
         <xmpTPg:HasVisibleOverprint>False</xmpTPg:HasVisibleOverprint>
         <xmpTPg:PlateNames>
            <rdf:Seq>
               <rdf:li>Cyan</rdf:li>
               <rdf:li>Magenta</rdf:li>
               <rdf:li>Yellow</rdf:li>
               <rdf:li>Black</rdf:li>
            </rdf:Seq>
         </xmpTPg:PlateNames>
         <xmpTPg:SwatchGroups>
            <rdf:Seq>
               <rdf:li rdf:parseType="Resource">
                  <xmpG:groupName>Default Swatch Group</xmpG:groupName>
                  <xmpG:groupType>0</xmpG:groupType>
               </rdf:li>
            </rdf:Seq>
         </xmpTPg:SwatchGroups>
         <dc:format>image/svg+xml</dc:format>
         <xmpMM:DerivedFrom rdf:parseType="Resource"/>
         <xmpMM:DocumentID>xmp.did:2b242d49-8083-437e-8dc5-7fe48601fda5</xmpMM:DocumentID>
         <xmpMM:InstanceID>xmp.iid:2b242d49-8083-437e-8dc5-7fe48601fda5</xmpMM:InstanceID>
         <xmpMM:OriginalDocumentID>xmp.did:2b242d49-8083-437e-8dc5-7fe48601fda5</xmpMM:OriginalDocumentID>
         <xmpMM:History>
            <rdf:Seq>
               <rdf:li rdf:parseType="Resource">
                  <stEvt:action>saved</stEvt:action>
                  <stEvt:instanceID>xmp.iid:2b242d49-8083-437e-8dc5-7fe48601fda5</stEvt:instanceID>
                  <stEvt:when>2020-11-11T12:02:38+05:30</stEvt:when>
                  <stEvt:softwareAgent>Adobe Illustrator 24.2 (Macintosh)</stEvt:softwareAgent>
                  <stEvt:changed>/</stEvt:changed>
               </rdf:li>
            </rdf:Seq>
         </xmpMM:History>
      </rdf:Description>
   </rdf:RDF>
</x:xmpmeta>
                                                                                                    
                                                                                                    
                                                                                                    
                                                                                                    
                                                                                                    
                                                                                                    
                                                                                                    
                                                                                                    
                                                                                                    
                                                                                                    
                                                                                                    
                                                                                                    
                                                                                                    
                                                                                                    
                                                                                                    
                                                                                                    
                                                                                                    
                                                                                                    
                                                                                                    
                                                                                                    
                           
<?xpacket end="w"?>
	</metadata>
<path class="st0" d="M41.7,0.1h-32L0.8,11.9h31.7L41.7,0.1z M40.9,26.1h-32L0,38h31.7L40.9,26.1z"/>
<path class="st1" d="M9.8,0l18,11.9h-3.8L9.8,0z M31.7,37.9l-14-11.8h-3.9C13.8,26.1,31.7,37.9,31.7,37.9z"/>
<path class="st2" d="M9.7,0.1L0.9,11.8c0,0,0,0.1,0,0.1l30.9,26l9.1-11.8L9.7,0.1z"/>
<path class="st3" d="M59.1,30.9c-1.4,0-2.7-0.2-3.9-0.7c-1.2-0.4-2.3-1.1-3.3-2l0.8-1.2c1,0.9,1.9,1.5,3,1.9c1,0.4,2.1,0.6,3.4,0.6
	c1.5,0,2.8-0.3,3.7-1c0.9-0.6,1.4-1.5,1.4-2.7c0-0.5-0.1-1-0.4-1.4c-0.2-0.4-0.6-0.7-1.1-1c-0.5-0.3-1.1-0.5-1.8-0.7
	c-0.8-0.2-1.6-0.4-2.4-0.6c-0.9-0.2-1.7-0.4-2.6-0.7c-0.7-0.2-1.3-0.5-1.8-0.8c-0.4-0.3-0.8-0.7-1.1-1.2c-0.2-0.5-0.4-1-0.4-1.7
	c0-0.9,0.2-1.7,0.5-2.3c0.3-0.6,0.8-1.2,1.4-1.6c0.6-0.4,1.3-0.8,2.1-1c0.8-0.2,1.7-0.3,2.5-0.3c1.4,0,2.6,0.2,3.7,0.7
	c1.1,0.5,1.9,1.1,2.5,1.8l-1,0.9c-0.6-0.7-1.4-1.2-2.3-1.5c-1-0.3-2-0.5-3-0.5c-0.7,0-1.3,0.1-1.9,0.2c-0.5,0.1-1.1,0.3-1.5,0.6
	c-0.4,0.3-0.8,0.7-1,1.1c-0.2,0.5-0.4,1-0.4,1.6c0,0.5,0.1,0.9,0.3,1.3c0.2,0.3,0.4,0.6,0.8,0.8c0.4,0.2,0.9,0.4,1.4,0.6
	c0.6,0.2,1.3,0.4,2.1,0.6c1.1,0.3,2.1,0.5,3,0.8c0.9,0.2,1.6,0.6,2.2,0.9c0.6,0.4,1,0.8,1.3,1.3c0.3,0.5,0.5,1.1,0.5,1.9
	c0,1.6-0.6,2.8-1.9,3.8C62.8,30.5,61.2,30.9,59.1,30.9z M78.1,29.8c-0.1,0-0.2,0.1-0.5,0.3c-0.3,0.1-0.5,0.3-0.8,0.4
	c-0.4,0.1-0.7,0.2-1.1,0.3c-0.4,0.1-0.8,0.1-1.3,0.1s-0.9-0.1-1.3-0.2c-0.4-0.1-0.8-0.3-1.1-0.6c-0.3-0.3-0.6-0.6-0.7-1
	c-0.2-0.4-0.3-0.8-0.3-1.4V14.3h-2.5v-1.4h2.5v-6h1.7v6h4.1v1.4h-4.1v12.9c0,0.7,0.2,1.2,0.7,1.5c0.4,0.3,1,0.5,1.5,0.5
	c0.7,0,1.3-0.1,1.8-0.4c0.5-0.2,0.8-0.4,0.9-0.5L78.1,29.8L78.1,29.8z M86.9,30.9c-3.8,0-5.6-2.6-5.6-7.8V12.9h1.7v10
	c0,4.4,1.5,6.5,4.5,6.5c0.7,0,1.5-0.1,2.2-0.4c1.4-0.5,2.7-1.5,3.6-2.8c0.5-0.7,0.8-1.4,1.1-2.2V12.9h1.7v15.3
	c0,0.6,0.2,0.8,0.7,0.8v1.5c-0.1,0-0.2,0-0.3,0h-0.2c-0.5,0-0.9-0.1-1.2-0.4c-0.4-0.3-0.5-0.7-0.5-1.1v-2.7
	c-0.8,1.4-1.8,2.5-3.2,3.3C89.9,30.5,88.4,31,86.9,30.9z M109,30.9c-1.2,0-2.4-0.3-3.4-0.8c-1-0.5-1.9-1.2-2.7-2
	c-0.8-0.9-1.4-1.8-1.8-2.9c-0.4-1.1-0.6-2.2-0.6-3.4c0-1.2,0.2-2.4,0.6-3.5c0.4-1.1,1-2.1,1.7-2.9c0.7-0.8,1.6-1.5,2.6-2
	c1-0.5,2.1-0.7,3.2-0.7c0.8,0,1.5,0.1,2.2,0.3c1.3,0.4,2.5,1.2,3.5,2.2c0.5,0.5,0.9,1,1.2,1.6v-11h1.7v22.4c0,0.6,0.2,0.8,0.7,0.8
	v1.5c-0.1,0-0.2,0-0.3,0.1c-0.1,0-0.2,0-0.3,0c-0.5,0-0.8-0.2-1.2-0.5c-0.3-0.4-0.5-0.7-0.5-1.1v-2c-0.7,1.2-1.7,2.1-2.9,2.8
	C111.5,30.6,110.3,30.9,109,30.9z M109.3,29.4c0.6,0,1.3-0.1,2-0.4c0.7-0.2,1.4-0.6,2-1c0.6-0.4,1.1-0.9,1.5-1.5
	c0.4-0.6,0.7-1.2,0.7-1.8v-5.8c-0.3-0.7-0.6-1.3-1.1-1.8c-0.9-1.1-2.1-2-3.5-2.5c-0.6-0.2-1.3-0.4-2-0.4c-1,0-1.9,0.2-2.8,0.7
	c-0.8,0.4-1.6,1-2.1,1.7c-0.6,0.7-1.1,1.6-1.4,2.4c-0.3,0.9-0.5,1.9-0.5,2.8c0,2,0.7,3.9,2.1,5.3c0.6,0.7,1.4,1.3,2.2,1.7
	C107.4,29.2,108.3,29.4,109.3,29.4z M122.9,8.9V5.8h1.7v3.1H122.9z M122.9,30.6V12.9h1.7v17.7H122.9z M134.6,30.9
	c-1.5,0-3-0.6-4.1-1.6c-0.5-0.5-1-1.1-1.2-1.7c-0.3-0.7-0.4-1.4-0.4-2.2c0-0.8,0.2-1.5,0.5-2.1c0.4-0.7,0.9-1.2,1.5-1.6
	c0.6-0.5,1.4-0.8,2.3-1.1c0.9-0.3,1.9-0.4,3-0.4c1,0,1.9,0.1,2.9,0.3c1,0.2,1.8,0.4,2.6,0.7v-1.7c0-1.7-0.5-3-1.4-4
	c-1-1-2.2-1.5-3.9-1.5c-0.9,0-1.8,0.2-2.7,0.5c-1,0.4-1.9,0.9-2.9,1.6l-0.6-1.2c2.3-1.5,4.4-2.3,6.5-2.3c2.1,0,3.8,0.6,5,1.9
	c1.2,1.2,1.8,2.9,1.8,5.1v8.6c0,0.6,0.2,0.8,0.7,0.8v1.5c-0.2,0-0.5,0.1-0.7,0.1c-0.5,0-0.8-0.2-1.1-0.5c-0.3-0.3-0.4-0.7-0.5-1.1
	v-1.5c-0.8,1.1-1.9,1.9-3.1,2.4C137.5,30.7,136.1,30.9,134.6,30.9z M135,29.6c1.3,0,2.5-0.2,3.6-0.7c1.1-0.5,1.9-1.2,2.5-2
	c0.4-0.5,0.5-0.9,0.5-1.4v-3.1c-0.8-0.3-1.7-0.6-2.5-0.7c-0.9-0.2-1.8-0.2-2.8-0.2c-0.9,0-1.7,0.1-2.4,0.3c-0.7,0.2-1.3,0.5-1.9,0.8
	c-0.5,0.3-0.9,0.7-1.2,1.2c-0.3,0.5-0.4,1-0.4,1.6c0,0.6,0.1,1.1,0.3,1.7c0.2,0.5,0.5,1,1,1.3c0.4,0.4,0.9,0.7,1.4,0.9
	C133.8,29.5,134.4,29.6,135,29.6z M157.2,14.5c-1.6,0-3,0.5-4.2,1.4c-1.2,0.9-2,2.1-2.5,3.7v11h-1.7V12.9h1.6v4.4
	c0.6-1.2,1.4-2.3,2.4-3c1-0.8,2.1-1.2,3.2-1.3c0.2,0,0.4,0,0.6,0h0.4L157.2,14.5L157.2,14.5z M167.4,30.9c-1.2,0-2.4-0.2-3.5-0.7
	c-1-0.5-2-1.2-2.8-2c-0.8-0.9-1.4-1.9-1.8-2.9c-0.4-1.1-0.7-2.3-0.7-3.6c0-1.2,0.2-2.4,0.7-3.5c0.4-1.1,1-2,1.8-2.9
	c0.8-0.8,1.7-1.5,2.7-2c1.1-0.5,2.2-0.7,3.4-0.7c1.2,0,2.4,0.2,3.5,0.7c1,0.5,2,1.1,2.8,2c0.8,0.8,1.4,1.8,1.8,2.9
	c0.4,1.1,0.7,2.3,0.6,3.5v0.4c0,0.2,0,0.3,0,0.3h-15.5c0.1,1,0.3,1.9,0.7,2.8c0.4,0.9,0.9,1.6,1.5,2.3c0.6,0.6,1.4,1.1,2.2,1.5
	c0.8,0.4,1.7,0.5,2.6,0.5c0.6,0,1.2-0.1,1.8-0.3c0.6-0.2,1.1-0.4,1.6-0.7c0.5-0.3,1-0.6,1.4-1.1c0.4-0.4,0.7-0.9,0.9-1.4l1.5,0.4
	c-0.3,0.6-0.6,1.2-1.1,1.8c-0.5,0.5-1.1,1-1.7,1.4C170.6,30.5,169,30.9,167.4,30.9L167.4,30.9z M174.4,21.1c-0.1-1-0.3-2-0.7-2.9
	c-0.4-0.8-0.9-1.6-1.5-2.2c-0.6-0.6-1.4-1.1-2.2-1.5c-0.8-0.4-1.7-0.5-2.6-0.5c-0.9,0-1.8,0.2-2.6,0.5c-0.8,0.3-1.5,0.8-2.2,1.5
	c-0.6,0.6-1.1,1.4-1.5,2.2c-0.4,0.9-0.6,1.9-0.7,2.8H174.4L174.4,21.1z"/>
<g>
	<g>
		<g>
			<linearGradient id="SVGID_1_" gradientUnits="userSpaceOnUse" x1="11.106" y1="31.658" x2="27.7641" y2="2.8052">
				<stop  offset="0" style="stop-color:#FFA122"/>
				<stop  offset="1" style="stop-color:#FFB200"/>
			</linearGradient>
			<path class="st4" d="M5.9,22.3c-1.5-1.3-1.8-5-1.8-5c1.5,2.2,3.7,2.5,3.7,2.5c0.6,1.8,1.8,2.1,2,2.2c0,0-0.2,0.1-0.6,0.1
				c0.3,1.3,1.5,2.5,1.5,2.5l-1.7,0l1.4,1L9.6,26c3.3,2.8,7.9,2.2,7.9,2.2c-4.2,0.1-7.1-2.1-7.1-2.1l1.2-0.4l-1.6-0.8l2.3,0.3
				c-1.6-0.4-2.4-2.9-2.4-2.9l1-0.3c-2.3-0.3-2.8-3.1-2.8-3.1l1.4-0.1c-1.2-0.3-2.5-1.2-2.5-1.2c0.7,0.3,2.3,0.6,2.3,0.6
				c-2.5-1.2-3-4.6-3-4.6l0.8,0.1C4.9,12.4,5.6,8,5.6,8l1.1,0.8C5.3,6.6,6.4,4.2,6.4,4.2c0.1,1.6,2.1,4.7,4.6,6.5
				c2.4,1.8,7.7,2.5,9.8,2.8c2.1,0.4,3.3,2.5,3.3,2.5L24,15.4c5.8,5.1,4.8,10.6,4.8,10.6s1.7-2,0.6-4.2c-2.9-5.5-7-9.4-7.6-13.1
				c-0.5-3.2,1-3.8,1-3.8l-0.9,0.3c0.6-1,2.4-1.7,2.4-1.7l-0.8,0C24.6,2.8,26.3,3,26.3,3l-0.8-0.2C30.9,2.3,31.7,8,31.7,8
				c-0.8,0.3-1,0.7-1,0.7s0.6-0.5,1-0.2c0.3,0.3,0,1.1,0.1,1.3c0,0.2,1.3,3.3,1,3.7c-0.3,0.4-3.3-3.4-3.3-3.4s-2.2-0.1-3.5-1.9
				c0,0-1,0.1-0.5,1.5c0.5,1.5,1.9,3.9,5,7.2c3,3.3,4.7,8.3,3,11.3c-1.7,3-5.7,4.3-9.3,4.5C9.5,33.8,6.5,28.2,6.5,28.2l1.8-0.4
				c-1.7-0.5-2.9-3.1-2.9-3.1l1.3,0.1c-1.3-0.6-1.9-2.2-1.9-2.2L6,22.9l-1.4-1.1L5.9,22.3z"/>
			<linearGradient id="SVGID_2_" gradientUnits="userSpaceOnUse" x1="14.9326" y1="12.3727" x2="19.8282" y2="3.8932">
				<stop  offset="0" style="stop-color:#FFA122"/>
				<stop  offset="1" style="stop-color:#FFB200"/>
			</linearGradient>
			<path class="st5" d="M12.5,9.2l0.6,0.5c-1-2,1.6-4.9,1.6-4.9l0.5,1.2c0-2.3,2-3.6,2-3.6c-0.7,1.2-0.6,4.5,0.3,7
				c0.4,1.1,1.3,2.3,2.3,3.3c-1.7-0.3-5.4-0.8-7.6-1.9C12.2,9.8,12.5,9.2,12.5,9.2z"/>
		</g>
		<g>
			<linearGradient id="SVGID_3_" gradientUnits="userSpaceOnUse" x1="15.9056" y1="38.9357" x2="23.4429" y2="25.8808">
				<stop  offset="0" style="stop-color:#FFA122"/>
				<stop  offset="1" style="stop-color:#FFB200"/>
			</linearGradient>
			<ellipse class="st6" cx="19.7" cy="32.4" rx="15" ry="0.6"/>
			<linearGradient id="SVGID_4_" gradientUnits="userSpaceOnUse" x1="16.9875" y1="38.002" x2="22.36" y2="28.6966">
				<stop  offset="0" style="stop-color:#FFA122"/>
				<stop  offset="1" style="stop-color:#FFB200"/>
			</linearGradient>
			<path class="st7" d="M9,33.3c0,0.3,4.8,0.4,10.7,0.4s10.7-0.1,10.7-0.4c0-0.3-4.8-0.1-10.7-0.1S9,33,9,33.3z"/>
			<linearGradient id="SVGID_5_" gradientUnits="userSpaceOnUse" x1="17.6691" y1="37.3199" x2="21.1999" y2="31.2044">
				<stop  offset="0" style="stop-color:#FFA122"/>
				<stop  offset="1" style="stop-color:#FFB200"/>
			</linearGradient>
			<path class="st8" d="M12.4,34.3c0,0.2,3.1,0.3,7,0.3s7-0.1,7-0.3c0-0.2-3.1-0.3-7-0.3S12.4,34.1,12.4,34.3z"/>
			<linearGradient id="SVGID_6_" gradientUnits="userSpaceOnUse" x1="33.337" y1="34.2885" x2="34.0073" y2="33.1275">
				<stop  offset="0" style="stop-color:#FFA122"/>
				<stop  offset="1" style="stop-color:#FFB200"/>
			</linearGradient>
			<ellipse class="st9" cx="33.7" cy="33.7" rx="1.3" ry="0.2"/>
			<linearGradient id="SVGID_7_" gradientUnits="userSpaceOnUse" x1="9.103" y1="35.1195" x2="9.7733" y2="33.9585">
				<stop  offset="0" style="stop-color:#FFA122"/>
				<stop  offset="1" style="stop-color:#FFB200"/>
			</linearGradient>
			<ellipse class="st10" cx="9.4" cy="34.5" rx="1.3" ry="0.2"/>
			<linearGradient id="SVGID_8_" gradientUnits="userSpaceOnUse" x1="24.2312" y1="36.5745" x2="24.9015" y2="35.4135">
				<stop  offset="0" style="stop-color:#FFA122"/>
				<stop  offset="1" style="stop-color:#FFB200"/>
			</linearGradient>
			<ellipse class="st11" cx="24.6" cy="36" rx="1.3" ry="0.2"/>
			<linearGradient id="SVGID_9_" gradientUnits="userSpaceOnUse" x1="17.1604" y1="36.1328" x2="18.5816" y2="33.671">
				<stop  offset="0" style="stop-color:#FFA122"/>
				<stop  offset="1" style="stop-color:#FFB200"/>
			</linearGradient>
			<ellipse class="st12" cx="17.9" cy="34.9" rx="2.7" ry="0.5"/>
			<linearGradient id="SVGID_10_" gradientUnits="userSpaceOnUse" x1="25.1317" y1="34.0269" x2="26.553" y2="31.5651">
				<stop  offset="0" style="stop-color:#FFA122"/>
				<stop  offset="1" style="stop-color:#FFB200"/>
			</linearGradient>
			<ellipse class="st13" cx="25.8" cy="32.8" rx="2.7" ry="0.5"/>
		</g>
	</g>
</g>
<linearGradient id="SVGID_11_" gradientUnits="userSpaceOnUse" x1="40.2554" y1="21.3602" x2="173.6976" y2="21.3602">
	<stop  offset="0" style="stop-color:#FFA122"/>
	<stop  offset="1" style="stop-color:#FFB200"/>
</linearGradient>
<path class="st14" d="M52,16.2c1.3,0,2.2,0.6,2.7,1.9l0.1,0.9c0,0.8-0.5,1.4-1.4,1.7l-0.7,0.1h-0.2c-1.3,0-2.2-0.4-2.7-1.1L49.7,19
	c0.1-0.6,0.4-0.9,0.9-0.9c0.3,0,0.5,0.2,0.6,0.7c0,0.2-0.1,0.4-0.2,0.5h-0.5v0c0,0.1,0.2,0.2,0.6,0.3c0.5,0,0.8-0.3,0.9-0.9
	c0-0.7-0.3-1.1-0.9-1.1c-1.1,0-1.8,0.7-2.3,2l0,0.5v0.2c0,0.4,0,0.5,0.1,0.5h3c1.4,0,2.3,0.7,2.7,2c0.1,0.5,0.1,0.9,0.1,1.2v0.1
	c0,1.9-0.9,3.2-2.8,3.9c-0.3,0.1-0.8,0.1-1.3,0.1c-1.3,0-2.2-0.4-2.8-1.3c-0.5,0.9-1.5,1.3-3,1.3c-1.9,0-3.2-1-3.8-2.9l-0.1-0.8
	c0-0.9,0.4-1.7,1.1-2.5h-1.5c-0.1,0-0.1-0.1-0.1-0.3V21l0.1-0.1l5.4,0h0.8l0.1-0.8c0-0.7-0.4-1.5-1.3-2.2c-0.4-0.2-0.8-0.3-1.1-0.3
	c-0.8,0-1.1,0.4-1.1,1c0,0.6,0.3,0.9,1,1c0.3,0,0.6-0.1,0.8-0.3v0h-0.4c-0.3,0-0.4-0.2-0.4-0.5c0.1-0.4,0.3-0.6,0.5-0.6h0.2
	c0.4,0,0.6,0.3,0.7,0.9c0,0.8-0.5,1.3-1.5,1.6c-0.3,0.1-0.7,0.1-1,0.1h-0.1c-1.4,0-2.2-0.3-2.5-0.9c-0.2-0.4-0.3-0.7-0.3-1.1
	c0-1.1,0.6-1.9,1.8-2.4c0.4-0.1,0.6-0.1,0.9-0.1h0.6c1.3,0,2.4,0.6,3.3,1.9c0.5,0.8,0.8,1.8,0.8,2.9l0,1c0,0.1-1.2,0.2-3.6,0.2
	c-0.8,0-1.5,0.3-1.9,1l0,0.2v0.2c0,0.7,0.8,1.2,2.4,1.4h0.1c1,0,1.8-0.3,2.4-0.9v-0.1l-0.1-0.4c0-0.3,0.2-0.5,0.6-0.5h0.1
	c0.3,0,0.5,0.1,0.7,0.3c0,0.3,0,0.5-0.1,0.6c0.4,0.7,1.2,1,2.3,1h0.3c1.4,0,2.2-0.5,2.5-1.6v-0.2c0-0.5-0.3-0.9-0.9-1.1l-0.8-0.1
	l-2.6,0c-0.9,0-1.3,0-1.3-0.1v-1.2c0-2.1,0.9-3.5,2.8-4.2C50.8,16.4,51.3,16.3,52,16.2z M47.4,8.3h0.6c2.1,0,3.8,0.6,5.2,1.8
	c0.8,0.8,1.2,1.8,1.2,3.1c0,1.6-0.9,2.7-2.7,3.2c-0.1,0.1-0.4,0.1-0.6,0.1h-0.3c-1.1-0.1-1.6-0.4-1.6-1l0-0.1
	c0.1-0.6,0.4-0.9,0.9-0.9h0.2c0.5,0.1,0.7,0.3,0.7,0.7c0,0.1-0.1,0.3-0.2,0.5v0h0c0.8,0,1.4-0.6,1.8-1.7v-0.2c0-1.3-1.2-2.1-3.6-2.6
	l-1.4-0.1c-1.4,0-2.7,0.3-3.9,0.9c-0.6,0.5-0.9,1-0.9,1.6v0c0,0.8,0.4,1.4,1.3,1.7l-0.1-0.3V15c0-0.4,0.2-0.6,0.7-0.7h0.1
	c0.6,0,0.8,0.3,0.8,1c-0.1,0.6-0.6,0.9-1.2,0.9h-0.2c-1.3,0-2.4-0.7-3.2-2.1c-0.2-0.5-0.2-0.9-0.2-1.2c0-1.8,1.2-3.2,3.4-4
	C45.3,8.5,46.3,8.3,47.4,8.3z M61,15.9c2.3,0,4.1,0.9,5.4,2.7c0.6,1,0.9,2.1,0.9,3.3v0.4c0,1.8-0.8,3.4-2.3,4.8
	c-1.1,0.8-2.3,1.2-3.8,1.2c-2.9,0-4.7-1.3-5.7-3.8c-0.2-0.7-0.2-1.2-0.2-1.7v-0.6c0-1.4,0.5-2.8,1.4-4.2
	C57.8,16.6,59.2,15.9,61,15.9z M57.5,19.3L57.5,19.3c0,0.6,0.5,1.1,1.6,1.3c0.4,0,0.8-0.2,1.1-0.5v-0.2l-0.1-0.1
	c-0.1,0.2-0.3,0.2-0.6,0.2c-0.5-0.1-0.7-0.4-0.7-0.6v-0.1c0-0.3,0.2-0.5,0.7-0.5h0.1c1,0.1,1.5,0.6,1.5,1.3v0.1c0,1-0.6,1.7-1.7,2.2
	l-0.4,0h-0.3c-0.6,0-1.2-0.3-1.8-0.9c-0.3-0.4-0.4-0.7-0.4-0.8h0l0,0.5c0.2,1.1,0.5,1.9,0.9,2.4c0.6,0.7,1.7,1,3.4,1H61
	c1.6,0,2.9-0.5,3.9-1.5c0.4-0.5,0.6-1.1,0.6-1.7v-0.1c0-1.1-0.5-2.2-1.5-3.3c-0.8-0.8-1.8-1.1-2.9-1.1c-1.6,0-2.8,0.7-3.5,2
	L57.5,19.3z M70.9,15.8h0.3c1.9,0,3.1,0.8,3.8,2.5c0.1,0.5,0.2,1,0.2,1.4v0.1c0,1.2-0.1,1.8-0.3,1.8h-1.5c-1.7,0-2.7,0.2-2.9,0.5
	l-0.1,0.4v0.1c0,1.3,1,2,2.9,2.3l0.8,0c1.5,0,2.6-0.6,3.2-1.9l0.1-0.6c0-0.5-0.2-0.8-0.6-0.9h-0.1c-0.1,0-0.1,0.3-0.2,0.8
	c-0.2,0.2-0.4,0.2-0.5,0.2h-0.1c-0.3,0-0.5-0.2-0.5-0.5c0-1.5,0.4-3,1.2-4.5c0.8-1,1.6-1.5,2.6-1.5h0.3c2.2,0,3.7,1.4,4.7,4.2
	c0.2,0.8,0.3,1.4,0.3,1.8c0,3.3-1.3,5.6-3.9,6.8c-0.6,0.2-1,0.3-1.4,0.3h-0.3c-0.7-0.1-1-0.3-1-0.6v-0.2c0-0.5,0.2-0.7,0.6-0.9h0.2
	c0.3,0,0.5,0.2,0.7,0.7l0.2,0h0.2c0.9,0,1.6-1,2.1-2.9l0.1-1.5c0-1.8-0.5-3.3-1.6-4.4c-0.5-0.4-1-0.6-1.6-0.6h0
	c-1.1,0-1.7,0.5-2,1.6v0.1H77c1.2,0,1.9,0.6,2.2,1.7l0.1,0.9v0.3c0,2-1.3,3.5-3.8,4.3c-0.7,0.1-1.4,0.2-1.9,0.2c-2.4,0-4.1-1-5.2-3
	c-0.3-0.7-0.4-1.2-0.4-1.6c0-1.6,1-2.7,3-3.2l1-0.1h1.9l0.2,0c0.1-0.4,0.2-0.7,0.2-1v-0.3c0-0.7-0.4-1.3-1.1-1.7l-0.9-0.2
	c-0.7,0.1-1.1,0.4-1.1,0.9v0.2c0.1,0.6,0.4,0.9,0.9,0.9h0.3c0.4-0.1,0.6-0.2,0.6-0.3v-0.1l-0.4,0c-0.2-0.1-0.3-0.2-0.3-0.4v-0.2
	c0-0.3,0.2-0.5,0.7-0.5c0.4,0,0.6,0.3,0.7,0.9v0.1c0,0.9-0.7,1.4-2.2,1.7l-1.1,0.1c-1.1,0-1.9-0.2-2.3-0.7c-0.3-0.4-0.4-0.8-0.4-1.4
	c0-1,0.6-1.8,1.9-2.4C70,15.9,70.5,15.8,70.9,15.8z M93.2,16h0.4c3.2,0,5.3,1.4,6.5,4.1c0.2,0.9,0.3,1.6,0.3,2.1
	c0,1.4-0.6,2.8-1.8,4c-1.5,1.1-3,1.6-4.7,1.6c-2.5,0-4.1-0.9-4.8-2.7C89,24.8,89,24.5,89,24.2v-0.3c0-0.9,0.4-1.6,1.2-1.9v0l-2,0.1
	l0,0c0.4-1,0.7-1.5,0.8-1.5c2.4-0.1,5.4-0.1,9.1-0.1l0,0v0c-0.3,0.9-0.5,1.4-0.6,1.4l-1.7,0v0c0.4,0.2,0.5,0.5,0.5,0.8V23
	c0,0.6-0.4,0.9-1.1,1c-0.7-0.1-1-0.4-1-0.9c0-0.4,0.2-0.6,0.7-0.6c0.1,0,0.3,0.1,0.5,0.3h0v0c0-0.4-0.3-0.6-0.8-0.7h-0.4
	c-0.6,0-1.1,0.5-1.4,1.4v0.3c0,0.9,0.7,1.5,2.1,1.8h0c1.6,0,2.8-0.7,3.8-2.1c0.2-0.6,0.3-1.1,0.3-1.6c0-1.5-0.7-2.8-2.2-3.8
	c-1.3-0.6-2.5-0.9-3.6-0.9h-0.6c-2.5,0-4.2,1.4-5.1,4.2c-0.1,0.6-0.2,1.1-0.2,1.5v0.7c0,2.1,0.8,4.1,2.5,6.1
	c1.8,1.8,3.9,2.8,6.2,2.8h0.2c2.4,0,3.5-0.8,3.5-2.3c-0.1-1.3-0.5-1.9-1.1-1.9h-0.1c-0.4,0.1-0.6,0.3-0.6,0.6l0.1,0.5
	c-0.2,0.4-0.4,0.6-0.8,0.6H97c-0.5,0-0.8-0.3-0.9-1v-0.2c0-0.7,0.6-1.2,1.7-1.7c0.6-0.1,1-0.2,1.4-0.2c1.1,0,1.9,0.4,2.3,1.3
	c0.1,0.3,0.2,0.7,0.2,1.1c0,1.5-1.2,2.9-3.5,4.2c-1.2,0.6-2.5,0.8-3.7,0.8h-0.4c-3.6,0-6.3-1.5-8.1-4.6c-0.8-1.5-1.2-3-1.2-4.7
	c0-3,1.2-5.5,3.5-7.4C89.8,16.5,91.5,16,93.2,16z M110.6,15.8h0.3c1.9,0,3.1,0.8,3.8,2.5c0.1,0.5,0.2,1,0.2,1.4v0.1
	c0,1.2-0.1,1.8-0.3,1.8h-1.5c-1.7,0-2.7,0.2-2.9,0.5l-0.1,0.4v0.1c0,1.3,1,2,2.9,2.3l0.8,0c1.5,0,2.6-0.6,3.2-1.9l0.1-0.6
	c0-0.5-0.2-0.8-0.6-0.9h-0.1c-0.1,0-0.1,0.3-0.2,0.8c-0.2,0.2-0.4,0.2-0.5,0.2h-0.1c-0.3,0-0.5-0.2-0.5-0.5c0-1.5,0.4-3,1.2-4.5
	c0.8-1,1.6-1.5,2.6-1.5h0.3c2.2,0,3.7,1.4,4.7,4.2c0.2,0.8,0.3,1.4,0.3,1.8c0,3.3-1.3,5.6-3.9,6.8c-0.6,0.2-1,0.3-1.4,0.3h-0.3
	c-0.7-0.1-1-0.3-1-0.6v-0.2c0-0.5,0.2-0.7,0.6-0.9h0.2c0.3,0,0.5,0.2,0.7,0.7l0.2,0h0.2c0.9,0,1.6-1,2.1-2.9l0.1-1.5
	c0-1.8-0.5-3.3-1.6-4.4c-0.5-0.4-1-0.6-1.6-0.6h0c-1.1,0-1.7,0.5-2,1.6v0.1h0.2c1.2,0,1.9,0.6,2.2,1.7l0.1,0.9v0.3
	c0,2-1.3,3.5-3.8,4.3c-0.7,0.1-1.4,0.2-1.9,0.2c-2.4,0-4.1-1-5.2-3c-0.3-0.7-0.4-1.2-0.4-1.6c0-1.6,1-2.7,3-3.2l1-0.1h1.9l0.2,0
	c0.1-0.4,0.2-0.7,0.2-1v-0.3c0-0.7-0.4-1.3-1.1-1.7l-0.9-0.2c-0.7,0.1-1.1,0.4-1.1,0.9v0.2c0.1,0.6,0.4,0.9,0.9,0.9h0.3
	c0.4-0.1,0.6-0.2,0.6-0.3v-0.1l-0.4,0c-0.2-0.1-0.3-0.2-0.3-0.4v-0.2c0-0.3,0.2-0.5,0.7-0.5c0.4,0,0.6,0.3,0.7,0.9v0.1
	c0,0.9-0.7,1.4-2.2,1.7l-1.1,0.1c-1.1,0-1.9-0.2-2.3-0.7c-0.3-0.4-0.4-0.8-0.4-1.4c0-1,0.6-1.8,1.9-2.4
	C109.7,15.9,110.2,15.8,110.6,15.8z M130.1,15.9c2.3,0,4.1,0.9,5.4,2.7c0.6,1,0.9,2.1,0.9,3.3v0.4c0,1.8-0.8,3.4-2.3,4.8
	c-1.1,0.8-2.3,1.2-3.8,1.2c-2.9,0-4.7-1.3-5.7-3.8c-0.2-0.7-0.2-1.2-0.2-1.7v-0.6c0-1.4,0.5-2.8,1.4-4.2
	C126.9,16.6,128.4,15.9,130.1,15.9z M126.6,19.3L126.6,19.3c0,0.6,0.5,1.1,1.6,1.3c0.4,0,0.8-0.2,1.1-0.5v-0.2l-0.1-0.1
	c-0.1,0.2-0.3,0.2-0.6,0.2c-0.5-0.1-0.7-0.4-0.7-0.6v-0.1c0-0.3,0.2-0.5,0.7-0.5h0.1c1,0.1,1.5,0.6,1.5,1.3v0.1c0,1-0.6,1.7-1.7,2.2
	l-0.4,0h-0.3c-0.6,0-1.2-0.3-1.8-0.9c-0.3-0.4-0.4-0.7-0.4-0.8h0l0,0.5c0.2,1.1,0.5,1.9,0.9,2.4c0.6,0.7,1.7,1,3.4,1h0.2
	c1.6,0,2.9-0.5,3.9-1.5c0.4-0.5,0.6-1.1,0.6-1.7v-0.1c0-1.1-0.5-2.2-1.5-3.3c-0.8-0.8-1.8-1.1-2.9-1.1c-1.6,0-2.8,0.7-3.5,2
	L126.6,19.3z M148.4,16.2c1.3,0,2.2,0.6,2.7,1.9l0.1,0.9c0,0.8-0.5,1.4-1.4,1.7l-0.7,0.1h-0.2c-1.3,0-2.2-0.4-2.7-1.1l-0.1-0.7
	c0.1-0.6,0.4-0.9,0.9-0.9c0.3,0,0.5,0.2,0.6,0.7c0,0.2-0.1,0.4-0.2,0.5h-0.5v0c0,0.1,0.2,0.2,0.6,0.3c0.5,0,0.8-0.3,0.9-0.9
	c0-0.7-0.3-1.1-0.9-1.1c-1.1,0-1.8,0.7-2.3,2l0,0.5v0.2c0,0.4,0,0.5,0.1,0.5h3c1.4,0,2.3,0.7,2.7,2c0.1,0.5,0.1,0.9,0.1,1.2v0.1
	c0,1.9-0.9,3.2-2.8,3.9c-0.3,0.1-0.8,0.1-1.3,0.1c-1.3,0-2.2-0.4-2.8-1.3c-0.5,0.9-1.5,1.3-3,1.3c-1.9,0-3.2-1-3.8-2.9l-0.1-0.8
	c0-0.9,0.4-1.7,1.1-2.5h-1.5c-0.1,0-0.1-0.1-0.1-0.3V21l0.1-0.1l5.4,0h0.8l0.1-0.8c0-0.7-0.4-1.5-1.3-2.2c-0.4-0.2-0.8-0.3-1.1-0.3
	c-0.8,0-1.1,0.4-1.1,1c0,0.6,0.3,0.9,1,1c0.3,0,0.6-0.1,0.8-0.3v0H141c-0.3,0-0.4-0.2-0.4-0.5c0.1-0.4,0.3-0.6,0.5-0.6h0.2
	c0.4,0,0.6,0.3,0.7,0.9c0,0.8-0.5,1.3-1.5,1.6c-0.3,0.1-0.7,0.1-1,0.1h-0.1c-1.4,0-2.2-0.3-2.5-0.9c-0.2-0.4-0.3-0.7-0.3-1.1
	c0-1.1,0.6-1.9,1.8-2.4c0.4-0.1,0.6-0.1,0.9-0.1h0.6c1.3,0,2.4,0.6,3.3,1.9c0.5,0.8,0.8,1.8,0.8,2.9l0,1c0,0.1-1.2,0.2-3.6,0.2
	c-0.8,0-1.5,0.3-1.9,1l0,0.2v0.2c0,0.7,0.8,1.2,2.4,1.4h0.1c1,0,1.8-0.3,2.4-0.9v-0.1l-0.1-0.4c0-0.3,0.2-0.5,0.6-0.5h0.1
	c0.3,0,0.5,0.1,0.7,0.3c0,0.3,0,0.5-0.1,0.6c0.4,0.7,1.2,1,2.3,1h0.3c1.4,0,2.2-0.5,2.5-1.6v-0.2c0-0.5-0.3-0.9-0.9-1.1l-0.8-0.1
	l-2.6,0c-0.9,0-1.3,0-1.3-0.1v-1.2c0-2.1,0.9-3.5,2.8-4.2C147.2,16.4,147.7,16.3,148.4,16.2z M162.9,16.3h0.3c1.2,0,2.1,0.6,2.6,1.9
	l0.1,0.8c0,1-0.7,1.7-2,1.8h-0.5c-1,0-1.8-0.3-2.4-0.9c-0.1-0.2-0.2-0.5-0.2-0.9V19c0-0.4,0.2-0.7,0.7-0.8h0.2
	c0.3,0,0.5,0.2,0.5,0.7c0,0.3-0.2,0.5-0.4,0.5h-0.1l0,0l-0.1,0c0.1,0.2,0.4,0.3,0.6,0.3c0.6-0.1,0.9-0.4,0.9-0.8v-0.1
	c0-0.7-0.3-1.1-0.9-1.1c-0.9,0-1.7,0.6-2.2,1.8c-0.1,0.3-0.1,0.6-0.1,0.8l0.1,0.6h2.7c1.5,0,2.5,0.5,2.9,1.5
	c0.2,0.5,0.3,1.1,0.3,1.7v0.2c0,1.7-0.8,2.9-2.5,3.7c-0.4,0.2-0.8,0.2-1.4,0.2h-0.3c-1.3,0-2.2-0.4-2.8-1.3c0,0.3-0.5,0.7-1.4,1.1
	c-0.5,0.1-0.9,0.2-1.4,0.2h-0.4c-1.5,0-2.6-0.9-3.3-2.6c-0.4-0.8-0.6-1.7-0.6-2.7c0-1.5,0.6-2.9,1.9-4c0.7-0.6,1.4-0.8,2.1-0.8h0.5
	c1,0,1.8,0.5,2.3,1.6c0.1,0.3,0.2,0.7,0.2,1.1V21c0,0.8-0.3,1.3-1,1.6c-0.3,0.1-0.6,0.1-0.8,0.1c-0.7,0-1.1-0.5-1.2-1.4
	c0-0.3,0.2-0.5,0.6-0.6h0c0.4,0,0.6,0.3,0.7,0.9l-0.2,0.5l0.2,0h0.1c0.3-0.1,0.5-0.2,0.5-0.5c-0.2-0.9-0.6-1.4-1.4-1.4l-0.2,0
	c-1.3,0-2.3,0.6-3,1.9c-0.2,0.4-0.2,0.8-0.2,1.1c0,0.8,0.5,1.3,1.5,1.7c0.5,0.1,0.9,0.1,1.2,0.1h0.1c0.9,0,1.7-0.3,2.3-0.8l0-0.2
	l-0.1-0.4c0-0.3,0.2-0.5,0.7-0.5c0.4,0,0.7,0.2,0.8,0.5l-0.1,0.5c0.5,0.7,1.2,1,2.4,1c1.6,0,2.4-0.5,2.7-1.6l0-0.2
	c0-0.7-0.5-1.1-1.5-1.2h-3.5c-0.4,0-0.6-0.1-0.6-0.3v-0.9c0-2.2,0.9-3.6,2.8-4.3C161.9,16.4,162.4,16.3,162.9,16.3z M169.4,16.4
	c2.2,0,3.6,1.7,4.2,5.2l0.1,1.2c0,2.7-1,4.4-2.9,5.3c-0.6,0.2-1.1,0.2-1.6,0.2c-1.4,0-2.3-0.6-2.8-1.9c-0.1-0.3-0.2-0.7-0.2-1.1
	c0-1.3,0.5-2.2,1.6-2.8l0.6-0.1h0.1c0.8,0.2,1.2,0.6,1.2,1.2v0.3c-0.1,0.6-0.3,0.9-0.7,0.9h-0.3c-0.4,0-0.6-0.3-0.7-0.9v-0.2
	l0.1-0.6h0c-0.3,0-0.6,0.3-0.7,1c0,0.7,0.5,1.2,1.4,1.3c1.2,0,2.1-1.1,2.6-3.2l0-0.7v-0.2l0-0.2c0-1-0.3-2-0.8-3.1
	c-0.5-0.6-1.1-0.9-1.7-0.9c-0.9,0.2-1.4,0.4-1.4,0.7h0c0.2,0,0.4,0.2,0.6,0.6v0c-0.1,0.6-0.4,0.9-0.8,0.9h-0.4
	c-0.4,0-0.7-0.3-0.7-0.9c0-1,0.7-1.8,2-2.2L169.4,16.4z"/>
</svg>
