<?xml version="1.0" encoding="utf-8"?>
<!-- Generator: Adobe Illustrator 24.2.0, SVG Export Plug-In . SVG Version: 6.00 Build 0)  -->
<svg version="1.1" id="Layer_1" xmlns="http://www.w3.org/2000/svg" xmlns:xlink="http://www.w3.org/1999/xlink" x="0px" y="0px"
	 viewBox="0 0 176 38" style="enable-background:new 0 0 176 38;" xml:space="preserve">
<style type="text/css">
	.st0{fill:#1E83F0;}
	.st1{fill:#1B66AA;}
	.st2{fill:#459AE5;}
	.st3{fill:#333333;}
	.st4{fill:url(#SVGID_1_);}
	.st5{fill:url(#SVGID_2_);}
	.st6{fill:url(#SVGID_3_);}
	.st7{fill:url(#SVGID_4_);}
	.st8{fill:url(#SVGID_5_);}
	.st9{fill:url(#SVGID_6_);}
	.st10{fill:url(#SVGID_7_);}
	.st11{fill:url(#SVGID_8_);}
	.st12{fill:url(#SVGID_9_);}
	.st13{fill:url(#SVGID_10_);}
	.st14{fill:url(#SVGID_11_);}
</style>
<path class="st0" d="M41.7,0.1h-32L0.8,11.9h31.7L41.7,0.1z M40.9,26.1h-32L0,38h31.7L40.9,26.1z"/>
<path class="st1" d="M9.8,0l18,11.9h-3.8L9.8,0z M31.7,37.9l-14-11.8h-3.9C13.8,26.1,31.7,37.9,31.7,37.9z"/>
<path class="st2" d="M9.7,0.1L0.9,11.8c0,0,0,0.1,0,0.1l30.9,26l9.1-11.8L9.7,0.1z"/>
<path class="st3" d="M59.1,30.9c-1.4,0-2.7-0.2-3.9-0.7c-1.2-0.4-2.3-1.1-3.3-2l0.8-1.2c1,0.9,1.9,1.5,3,1.9c1,0.4,2.1,0.6,3.4,0.6
	c1.5,0,2.8-0.3,3.7-1c0.9-0.6,1.4-1.5,1.4-2.7c0-0.5-0.1-1-0.4-1.4c-0.2-0.4-0.6-0.7-1.1-1c-0.5-0.3-1.1-0.5-1.8-0.7
	c-0.8-0.2-1.6-0.4-2.4-0.6c-0.9-0.2-1.7-0.4-2.6-0.7c-0.7-0.2-1.3-0.5-1.8-0.8c-0.4-0.3-0.8-0.7-1.1-1.2c-0.2-0.5-0.4-1-0.4-1.7
	c0-0.9,0.2-1.7,0.5-2.3c0.3-0.6,0.8-1.2,1.4-1.6c0.6-0.4,1.3-0.8,2.1-1c0.8-0.2,1.7-0.3,2.5-0.3c1.4,0,2.6,0.2,3.7,0.7
	c1.1,0.5,1.9,1.1,2.5,1.8l-1,0.9c-0.6-0.7-1.4-1.2-2.3-1.5c-1-0.3-2-0.5-3-0.5c-0.7,0-1.3,0.1-1.9,0.2c-0.5,0.1-1.1,0.3-1.5,0.6
	c-0.4,0.3-0.8,0.7-1,1.1c-0.2,0.5-0.4,1-0.4,1.6c0,0.5,0.1,0.9,0.3,1.3c0.2,0.3,0.4,0.6,0.8,0.8c0.4,0.2,0.9,0.4,1.4,0.6
	c0.6,0.2,1.3,0.4,2.1,0.6c1.1,0.3,2.1,0.5,3,0.8c0.9,0.2,1.6,0.6,2.2,0.9c0.6,0.4,1,0.8,1.3,1.3c0.3,0.5,0.5,1.1,0.5,1.9
	c0,1.6-0.6,2.8-1.9,3.8C62.8,30.5,61.2,30.9,59.1,30.9z M78.1,29.8c-0.1,0-0.2,0.1-0.5,0.3c-0.3,0.1-0.5,0.3-0.8,0.4
	c-0.4,0.1-0.7,0.2-1.1,0.3c-0.4,0.1-0.8,0.1-1.3,0.1s-0.9-0.1-1.3-0.2c-0.4-0.1-0.8-0.3-1.1-0.6c-0.3-0.3-0.6-0.6-0.7-1
	c-0.2-0.4-0.3-0.8-0.3-1.4V14.3h-2.5v-1.4h2.5v-6h1.7v6h4.1v1.4h-4.1v12.9c0,0.7,0.2,1.2,0.7,1.5c0.4,0.3,1,0.5,1.5,0.5
	c0.7,0,1.3-0.1,1.8-0.4c0.5-0.2,0.8-0.4,0.9-0.5L78.1,29.8L78.1,29.8z M86.9,30.9c-3.8,0-5.6-2.6-5.6-7.8V12.9h1.7v10
	c0,4.4,1.5,6.5,4.5,6.5c0.7,0,1.5-0.1,2.2-0.4c1.4-0.5,2.7-1.5,3.6-2.8c0.5-0.7,0.8-1.4,1.1-2.2V12.9h1.7v15.3
	c0,0.6,0.2,0.8,0.7,0.8v1.5c-0.1,0-0.2,0-0.3,0h-0.2c-0.5,0-0.9-0.1-1.2-0.4c-0.4-0.3-0.5-0.7-0.5-1.1v-2.7
	c-0.8,1.4-1.8,2.5-3.2,3.3C89.9,30.5,88.4,31,86.9,30.9z M109,30.9c-1.2,0-2.4-0.3-3.4-0.8c-1-0.5-1.9-1.2-2.7-2
	c-0.8-0.9-1.4-1.8-1.8-2.9c-0.4-1.1-0.6-2.2-0.6-3.4c0-1.2,0.2-2.4,0.6-3.5c0.4-1.1,1-2.1,1.7-2.9c0.7-0.8,1.6-1.5,2.6-2
	c1-0.5,2.1-0.7,3.2-0.7c0.8,0,1.5,0.1,2.2,0.3c1.3,0.4,2.5,1.2,3.5,2.2c0.5,0.5,0.9,1,1.2,1.6v-11h1.7v22.4c0,0.6,0.2,0.8,0.7,0.8
	v1.5c-0.1,0-0.2,0-0.3,0.1c-0.1,0-0.2,0-0.3,0c-0.5,0-0.8-0.2-1.2-0.5c-0.3-0.4-0.5-0.7-0.5-1.1v-2c-0.7,1.2-1.7,2.1-2.9,2.8
	C111.5,30.6,110.3,30.9,109,30.9z M109.3,29.4c0.6,0,1.3-0.1,2-0.4c0.7-0.2,1.4-0.6,2-1c0.6-0.4,1.1-0.9,1.5-1.5
	c0.4-0.6,0.7-1.2,0.7-1.8v-5.8c-0.3-0.7-0.6-1.3-1.1-1.8c-0.9-1.1-2.1-2-3.5-2.5c-0.6-0.2-1.3-0.4-2-0.4c-1,0-1.9,0.2-2.8,0.7
	c-0.8,0.4-1.6,1-2.1,1.7c-0.6,0.7-1.1,1.6-1.4,2.4c-0.3,0.9-0.5,1.9-0.5,2.8c0,2,0.7,3.9,2.1,5.3c0.6,0.7,1.4,1.3,2.2,1.7
	C107.4,29.2,108.3,29.4,109.3,29.4z M122.9,8.9V5.8h1.7v3.1H122.9z M122.9,30.6V12.9h1.7v17.7H122.9z M134.6,30.9
	c-1.5,0-3-0.6-4.1-1.6c-0.5-0.5-1-1.1-1.2-1.7c-0.3-0.7-0.4-1.4-0.4-2.2c0-0.8,0.2-1.5,0.5-2.1c0.4-0.7,0.9-1.2,1.5-1.6
	c0.6-0.5,1.4-0.8,2.3-1.1c0.9-0.3,1.9-0.4,3-0.4c1,0,1.9,0.1,2.9,0.3c1,0.2,1.8,0.4,2.6,0.7v-1.7c0-1.7-0.5-3-1.4-4
	c-1-1-2.2-1.5-3.9-1.5c-0.9,0-1.8,0.2-2.7,0.5c-1,0.4-1.9,0.9-2.9,1.6l-0.6-1.2c2.3-1.5,4.4-2.3,6.5-2.3c2.1,0,3.8,0.6,5,1.9
	c1.2,1.2,1.8,2.9,1.8,5.1v8.6c0,0.6,0.2,0.8,0.7,0.8v1.5c-0.2,0-0.5,0.1-0.7,0.1c-0.5,0-0.8-0.2-1.1-0.5c-0.3-0.3-0.4-0.7-0.5-1.1
	v-1.5c-0.8,1.1-1.9,1.9-3.1,2.4C137.5,30.7,136.1,30.9,134.6,30.9z M135,29.6c1.3,0,2.5-0.2,3.6-0.7c1.1-0.5,1.9-1.2,2.5-2
	c0.4-0.5,0.5-0.9,0.5-1.4v-3.1c-0.8-0.3-1.7-0.6-2.5-0.7c-0.9-0.2-1.8-0.2-2.8-0.2c-0.9,0-1.7,0.1-2.4,0.3c-0.7,0.2-1.3,0.5-1.9,0.8
	c-0.5,0.3-0.9,0.7-1.2,1.2c-0.3,0.5-0.4,1-0.4,1.6c0,0.6,0.1,1.1,0.3,1.7c0.2,0.5,0.5,1,1,1.3c0.4,0.4,0.9,0.7,1.4,0.9
	C133.8,29.5,134.4,29.6,135,29.6z M157.2,14.5c-1.6,0-3,0.5-4.2,1.4c-1.2,0.9-2,2.1-2.5,3.7v11h-1.7V12.9h1.6v4.4
	c0.6-1.2,1.4-2.3,2.4-3c1-0.8,2.1-1.2,3.2-1.3c0.2,0,0.4,0,0.6,0h0.4L157.2,14.5L157.2,14.5z M167.4,30.9c-1.2,0-2.4-0.2-3.5-0.7
	c-1-0.5-2-1.2-2.8-2c-0.8-0.9-1.4-1.9-1.8-2.9c-0.4-1.1-0.7-2.3-0.7-3.6c0-1.2,0.2-2.4,0.7-3.5c0.4-1.1,1-2,1.8-2.9
	c0.8-0.8,1.7-1.5,2.7-2c1.1-0.5,2.2-0.7,3.4-0.7c1.2,0,2.4,0.2,3.5,0.7c1,0.5,2,1.1,2.8,2c0.8,0.8,1.4,1.8,1.8,2.9
	c0.4,1.1,0.7,2.3,0.6,3.5v0.4c0,0.2,0,0.3,0,0.3h-15.5c0.1,1,0.3,1.9,0.7,2.8c0.4,0.9,0.9,1.6,1.5,2.3c0.6,0.6,1.4,1.1,2.2,1.5
	c0.8,0.4,1.7,0.5,2.6,0.5c0.6,0,1.2-0.1,1.8-0.3c0.6-0.2,1.1-0.4,1.6-0.7c0.5-0.3,1-0.6,1.4-1.1c0.4-0.4,0.7-0.9,0.9-1.4l1.5,0.4
	c-0.3,0.6-0.6,1.2-1.1,1.8c-0.5,0.5-1.1,1-1.7,1.4C170.6,30.5,169,30.9,167.4,30.9L167.4,30.9z M174.4,21.1c-0.1-1-0.3-2-0.7-2.9
	c-0.4-0.8-0.9-1.6-1.5-2.2c-0.6-0.6-1.4-1.1-2.2-1.5c-0.8-0.4-1.7-0.5-2.6-0.5c-0.9,0-1.8,0.2-2.6,0.5c-0.8,0.3-1.5,0.8-2.2,1.5
	c-0.6,0.6-1.1,1.4-1.5,2.2c-0.4,0.9-0.6,1.9-0.7,2.8H174.4L174.4,21.1z"/>
<g>
	<g>
		<g>
			<linearGradient id="SVGID_1_" gradientUnits="userSpaceOnUse" x1="11.106" y1="31.658" x2="27.7641" y2="2.8052">
				<stop  offset="0" style="stop-color:#FFA122"/>
				<stop  offset="1" style="stop-color:#FFB200"/>
			</linearGradient>
			<path class="st4" d="M5.9,22.3c-1.5-1.3-1.8-5-1.8-5c1.5,2.2,3.7,2.5,3.7,2.5c0.6,1.8,1.8,2.1,2,2.2c0,0-0.2,0.1-0.6,0.1
				c0.3,1.3,1.5,2.5,1.5,2.5l-1.7,0l1.4,1L9.6,26c3.3,2.8,7.9,2.2,7.9,2.2c-4.2,0.1-7.1-2.1-7.1-2.1l1.2-0.4l-1.6-0.8l2.3,0.3
				c-1.6-0.4-2.4-2.9-2.4-2.9l1-0.3c-2.3-0.3-2.8-3.1-2.8-3.1l1.4-0.1c-1.2-0.3-2.5-1.2-2.5-1.2c0.7,0.3,2.3,0.6,2.3,0.6
				c-2.5-1.2-3-4.6-3-4.6l0.8,0.1C4.9,12.4,5.6,8,5.6,8l1.1,0.8C5.3,6.6,6.4,4.2,6.4,4.2c0.1,1.6,2.1,4.7,4.6,6.5
				c2.4,1.8,7.7,2.5,9.8,2.8c2.1,0.4,3.3,2.5,3.3,2.5L24,15.4c5.8,5.1,4.8,10.6,4.8,10.6s1.7-2,0.6-4.2c-2.9-5.5-7-9.4-7.6-13.1
				c-0.5-3.2,1-3.8,1-3.8l-0.9,0.3c0.6-1,2.4-1.7,2.4-1.7l-0.8,0C24.6,2.8,26.3,3,26.3,3l-0.8-0.2C30.9,2.3,31.7,8,31.7,8
				c-0.8,0.3-1,0.7-1,0.7s0.6-0.5,1-0.2c0.3,0.3,0,1.1,0.1,1.3c0,0.2,1.3,3.3,1,3.7c-0.3,0.4-3.3-3.4-3.3-3.4s-2.2-0.1-3.5-1.9
				c0,0-1,0.1-0.5,1.5c0.5,1.5,1.9,3.9,5,7.2c3,3.3,4.7,8.3,3,11.3c-1.7,3-5.7,4.3-9.3,4.5C9.5,33.8,6.5,28.2,6.5,28.2l1.8-0.4
				c-1.7-0.5-2.9-3.1-2.9-3.1l1.3,0.1c-1.3-0.6-1.9-2.2-1.9-2.2L6,22.9l-1.4-1.1L5.9,22.3z"/>
			<linearGradient id="SVGID_2_" gradientUnits="userSpaceOnUse" x1="14.9326" y1="12.3727" x2="19.8282" y2="3.8932">
				<stop  offset="0" style="stop-color:#FFA122"/>
				<stop  offset="1" style="stop-color:#FFB200"/>
			</linearGradient>
			<path class="st5" d="M12.5,9.2l0.6,0.5c-1-2,1.6-4.9,1.6-4.9l0.5,1.2c0-2.3,2-3.6,2-3.6c-0.7,1.2-0.6,4.5,0.3,7
				c0.4,1.1,1.3,2.3,2.3,3.3c-1.7-0.3-5.4-0.8-7.6-1.9C12.2,9.8,12.5,9.2,12.5,9.2z"/>
		</g>
		<g>
			<linearGradient id="SVGID_3_" gradientUnits="userSpaceOnUse" x1="15.9056" y1="38.9357" x2="23.4429" y2="25.8808">
				<stop  offset="0" style="stop-color:#FFA122"/>
				<stop  offset="1" style="stop-color:#FFB200"/>
			</linearGradient>
			<ellipse class="st6" cx="19.7" cy="32.4" rx="15" ry="0.6"/>
			<linearGradient id="SVGID_4_" gradientUnits="userSpaceOnUse" x1="16.9875" y1="38.002" x2="22.36" y2="28.6966">
				<stop  offset="0" style="stop-color:#FFA122"/>
				<stop  offset="1" style="stop-color:#FFB200"/>
			</linearGradient>
			<path class="st7" d="M9,33.3c0,0.3,4.8,0.4,10.7,0.4s10.7-0.1,10.7-0.4c0-0.3-4.8-0.1-10.7-0.1S9,33,9,33.3z"/>
			<linearGradient id="SVGID_5_" gradientUnits="userSpaceOnUse" x1="17.6691" y1="37.3199" x2="21.1999" y2="31.2044">
				<stop  offset="0" style="stop-color:#FFA122"/>
				<stop  offset="1" style="stop-color:#FFB200"/>
			</linearGradient>
			<path class="st8" d="M12.4,34.3c0,0.2,3.1,0.3,7,0.3s7-0.1,7-0.3c0-0.2-3.1-0.3-7-0.3S12.4,34.1,12.4,34.3z"/>
			<linearGradient id="SVGID_6_" gradientUnits="userSpaceOnUse" x1="33.337" y1="34.2885" x2="34.0073" y2="33.1275">
				<stop  offset="0" style="stop-color:#FFA122"/>
				<stop  offset="1" style="stop-color:#FFB200"/>
			</linearGradient>
			<ellipse class="st9" cx="33.7" cy="33.7" rx="1.3" ry="0.2"/>
			<linearGradient id="SVGID_7_" gradientUnits="userSpaceOnUse" x1="9.103" y1="35.1195" x2="9.7733" y2="33.9585">
				<stop  offset="0" style="stop-color:#FFA122"/>
				<stop  offset="1" style="stop-color:#FFB200"/>
			</linearGradient>
			<ellipse class="st10" cx="9.4" cy="34.5" rx="1.3" ry="0.2"/>
			<linearGradient id="SVGID_8_" gradientUnits="userSpaceOnUse" x1="24.2312" y1="36.5745" x2="24.9015" y2="35.4135">
				<stop  offset="0" style="stop-color:#FFA122"/>
				<stop  offset="1" style="stop-color:#FFB200"/>
			</linearGradient>
			<ellipse class="st11" cx="24.6" cy="36" rx="1.3" ry="0.2"/>
			<linearGradient id="SVGID_9_" gradientUnits="userSpaceOnUse" x1="17.1604" y1="36.1328" x2="18.5816" y2="33.671">
				<stop  offset="0" style="stop-color:#FFA122"/>
				<stop  offset="1" style="stop-color:#FFB200"/>
			</linearGradient>
			<ellipse class="st12" cx="17.9" cy="34.9" rx="2.7" ry="0.5"/>
			<linearGradient id="SVGID_10_" gradientUnits="userSpaceOnUse" x1="25.1317" y1="34.0269" x2="26.553" y2="31.5651">
				<stop  offset="0" style="stop-color:#FFA122"/>
				<stop  offset="1" style="stop-color:#FFB200"/>
			</linearGradient>
			<ellipse class="st13" cx="25.8" cy="32.8" rx="2.7" ry="0.5"/>
		</g>
	</g>
</g>
<linearGradient id="SVGID_11_" gradientUnits="userSpaceOnUse" x1="40.2554" y1="21.3602" x2="173.6976" y2="21.3602">
	<stop  offset="0" style="stop-color:#FFA122"/>
	<stop  offset="1" style="stop-color:#FFB200"/>
</linearGradient>
<path class="st14" d="M52,16.2c1.3,0,2.2,0.6,2.7,1.9l0.1,0.9c0,0.8-0.5,1.4-1.4,1.7l-0.7,0.1h-0.2c-1.3,0-2.2-0.4-2.7-1.1L49.7,19
	c0.1-0.6,0.4-0.9,0.9-0.9c0.3,0,0.5,0.2,0.6,0.7c0,0.2-0.1,0.4-0.2,0.5h-0.5v0c0,0.1,0.2,0.2,0.6,0.3c0.5,0,0.8-0.3,0.9-0.9
	c0-0.7-0.3-1.1-0.9-1.1c-1.1,0-1.8,0.7-2.3,2l0,0.5v0.2c0,0.4,0,0.5,0.1,0.5h3c1.4,0,2.3,0.7,2.7,2c0.1,0.5,0.1,0.9,0.1,1.2v0.1
	c0,1.9-0.9,3.2-2.8,3.9c-0.3,0.1-0.8,0.1-1.3,0.1c-1.3,0-2.2-0.4-2.8-1.3c-0.5,0.9-1.5,1.3-3,1.3c-1.9,0-3.2-1-3.8-2.9l-0.1-0.8
	c0-0.9,0.4-1.7,1.1-2.5h-1.5c-0.1,0-0.1-0.1-0.1-0.3V21l0.1-0.1l5.4,0h0.8l0.1-0.8c0-0.7-0.4-1.5-1.3-2.2c-0.4-0.2-0.8-0.3-1.1-0.3
	c-0.8,0-1.1,0.4-1.1,1c0,0.6,0.3,0.9,1,1c0.3,0,0.6-0.1,0.8-0.3v0h-0.4c-0.3,0-0.4-0.2-0.4-0.5c0.1-0.4,0.3-0.6,0.5-0.6h0.2
	c0.4,0,0.6,0.3,0.7,0.9c0,0.8-0.5,1.3-1.5,1.6c-0.3,0.1-0.7,0.1-1,0.1h-0.1c-1.4,0-2.2-0.3-2.5-0.9c-0.2-0.4-0.3-0.7-0.3-1.1
	c0-1.1,0.6-1.9,1.8-2.4c0.4-0.1,0.6-0.1,0.9-0.1h0.6c1.3,0,2.4,0.6,3.3,1.9c0.5,0.8,0.8,1.8,0.8,2.9l0,1c0,0.1-1.2,0.2-3.6,0.2
	c-0.8,0-1.5,0.3-1.9,1l0,0.2v0.2c0,0.7,0.8,1.2,2.4,1.4h0.1c1,0,1.8-0.3,2.4-0.9v-0.1l-0.1-0.4c0-0.3,0.2-0.5,0.6-0.5h0.1
	c0.3,0,0.5,0.1,0.7,0.3c0,0.3,0,0.5-0.1,0.6c0.4,0.7,1.2,1,2.3,1h0.3c1.4,0,2.2-0.5,2.5-1.6v-0.2c0-0.5-0.3-0.9-0.9-1.1l-0.8-0.1
	l-2.6,0c-0.9,0-1.3,0-1.3-0.1v-1.2c0-2.1,0.9-3.5,2.8-4.2C50.8,16.4,51.3,16.3,52,16.2z M47.4,8.3h0.6c2.1,0,3.8,0.6,5.2,1.8
	c0.8,0.8,1.2,1.8,1.2,3.1c0,1.6-0.9,2.7-2.7,3.2c-0.1,0.1-0.4,0.1-0.6,0.1h-0.3c-1.1-0.1-1.6-0.4-1.6-1l0-0.1
	c0.1-0.6,0.4-0.9,0.9-0.9h0.2c0.5,0.1,0.7,0.3,0.7,0.7c0,0.1-0.1,0.3-0.2,0.5v0h0c0.8,0,1.4-0.6,1.8-1.7v-0.2c0-1.3-1.2-2.1-3.6-2.6
	l-1.4-0.1c-1.4,0-2.7,0.3-3.9,0.9c-0.6,0.5-0.9,1-0.9,1.6v0c0,0.8,0.4,1.4,1.3,1.7l-0.1-0.3V15c0-0.4,0.2-0.6,0.7-0.7h0.1
	c0.6,0,0.8,0.3,0.8,1c-0.1,0.6-0.6,0.9-1.2,0.9h-0.2c-1.3,0-2.4-0.7-3.2-2.1c-0.2-0.5-0.2-0.9-0.2-1.2c0-1.8,1.2-3.2,3.4-4
	C45.3,8.5,46.3,8.3,47.4,8.3z M61,15.9c2.3,0,4.1,0.9,5.4,2.7c0.6,1,0.9,2.1,0.9,3.3v0.4c0,1.8-0.8,3.4-2.3,4.8
	c-1.1,0.8-2.3,1.2-3.8,1.2c-2.9,0-4.7-1.3-5.7-3.8c-0.2-0.7-0.2-1.2-0.2-1.7v-0.6c0-1.4,0.5-2.8,1.4-4.2
	C57.8,16.6,59.2,15.9,61,15.9z M57.5,19.3L57.5,19.3c0,0.6,0.5,1.1,1.6,1.3c0.4,0,0.8-0.2,1.1-0.5v-0.2l-0.1-0.1
	c-0.1,0.2-0.3,0.2-0.6,0.2c-0.5-0.1-0.7-0.4-0.7-0.6v-0.1c0-0.3,0.2-0.5,0.7-0.5h0.1c1,0.1,1.5,0.6,1.5,1.3v0.1c0,1-0.6,1.7-1.7,2.2
	l-0.4,0h-0.3c-0.6,0-1.2-0.3-1.8-0.9c-0.3-0.4-0.4-0.7-0.4-0.8h0l0,0.5c0.2,1.1,0.5,1.9,0.9,2.4c0.6,0.7,1.7,1,3.4,1H61
	c1.6,0,2.9-0.5,3.9-1.5c0.4-0.5,0.6-1.1,0.6-1.7v-0.1c0-1.1-0.5-2.2-1.5-3.3c-0.8-0.8-1.8-1.1-2.9-1.1c-1.6,0-2.8,0.7-3.5,2
	L57.5,19.3z M70.9,15.8h0.3c1.9,0,3.1,0.8,3.8,2.5c0.1,0.5,0.2,1,0.2,1.4v0.1c0,1.2-0.1,1.8-0.3,1.8h-1.5c-1.7,0-2.7,0.2-2.9,0.5
	l-0.1,0.4v0.1c0,1.3,1,2,2.9,2.3l0.8,0c1.5,0,2.6-0.6,3.2-1.9l0.1-0.6c0-0.5-0.2-0.8-0.6-0.9h-0.1c-0.1,0-0.1,0.3-0.2,0.8
	c-0.2,0.2-0.4,0.2-0.5,0.2h-0.1c-0.3,0-0.5-0.2-0.5-0.5c0-1.5,0.4-3,1.2-4.5c0.8-1,1.6-1.5,2.6-1.5h0.3c2.2,0,3.7,1.4,4.7,4.2
	c0.2,0.8,0.3,1.4,0.3,1.8c0,3.3-1.3,5.6-3.9,6.8c-0.6,0.2-1,0.3-1.4,0.3h-0.3c-0.7-0.1-1-0.3-1-0.6v-0.2c0-0.5,0.2-0.7,0.6-0.9h0.2
	c0.3,0,0.5,0.2,0.7,0.7l0.2,0h0.2c0.9,0,1.6-1,2.1-2.9l0.1-1.5c0-1.8-0.5-3.3-1.6-4.4c-0.5-0.4-1-0.6-1.6-0.6h0
	c-1.1,0-1.7,0.5-2,1.6v0.1H77c1.2,0,1.9,0.6,2.2,1.7l0.1,0.9v0.3c0,2-1.3,3.5-3.8,4.3c-0.7,0.1-1.4,0.2-1.9,0.2c-2.4,0-4.1-1-5.2-3
	c-0.3-0.7-0.4-1.2-0.4-1.6c0-1.6,1-2.7,3-3.2l1-0.1h1.9l0.2,0c0.1-0.4,0.2-0.7,0.2-1v-0.3c0-0.7-0.4-1.3-1.1-1.7l-0.9-0.2
	c-0.7,0.1-1.1,0.4-1.1,0.9v0.2c0.1,0.6,0.4,0.9,0.9,0.9h0.3c0.4-0.1,0.6-0.2,0.6-0.3v-0.1l-0.4,0c-0.2-0.1-0.3-0.2-0.3-0.4v-0.2
	c0-0.3,0.2-0.5,0.7-0.5c0.4,0,0.6,0.3,0.7,0.9v0.1c0,0.9-0.7,1.4-2.2,1.7l-1.1,0.1c-1.1,0-1.9-0.2-2.3-0.7c-0.3-0.4-0.4-0.8-0.4-1.4
	c0-1,0.6-1.8,1.9-2.4C70,15.9,70.5,15.8,70.9,15.8z M93.2,16h0.4c3.2,0,5.3,1.4,6.5,4.1c0.2,0.9,0.3,1.6,0.3,2.1
	c0,1.4-0.6,2.8-1.8,4c-1.5,1.1-3,1.6-4.7,1.6c-2.5,0-4.1-0.9-4.8-2.7C89,24.8,89,24.5,89,24.2v-0.3c0-0.9,0.4-1.6,1.2-1.9v0l-2,0.1
	l0,0c0.4-1,0.7-1.5,0.8-1.5c2.4-0.1,5.4-0.1,9.1-0.1l0,0v0c-0.3,0.9-0.5,1.4-0.6,1.4l-1.7,0v0c0.4,0.2,0.5,0.5,0.5,0.8V23
	c0,0.6-0.4,0.9-1.1,1c-0.7-0.1-1-0.4-1-0.9c0-0.4,0.2-0.6,0.7-0.6c0.1,0,0.3,0.1,0.5,0.3h0v0c0-0.4-0.3-0.6-0.8-0.7h-0.4
	c-0.6,0-1.1,0.5-1.4,1.4v0.3c0,0.9,0.7,1.5,2.1,1.8h0c1.6,0,2.8-0.7,3.8-2.1c0.2-0.6,0.3-1.1,0.3-1.6c0-1.5-0.7-2.8-2.2-3.8
	c-1.3-0.6-2.5-0.9-3.6-0.9h-0.6c-2.5,0-4.2,1.4-5.1,4.2c-0.1,0.6-0.2,1.1-0.2,1.5v0.7c0,2.1,0.8,4.1,2.5,6.1
	c1.8,1.8,3.9,2.8,6.2,2.8h0.2c2.4,0,3.5-0.8,3.5-2.3c-0.1-1.3-0.5-1.9-1.1-1.9h-0.1c-0.4,0.1-0.6,0.3-0.6,0.6l0.1,0.5
	c-0.2,0.4-0.4,0.6-0.8,0.6H97c-0.5,0-0.8-0.3-0.9-1v-0.2c0-0.7,0.6-1.2,1.7-1.7c0.6-0.1,1-0.2,1.4-0.2c1.1,0,1.9,0.4,2.3,1.3
	c0.1,0.3,0.2,0.7,0.2,1.1c0,1.5-1.2,2.9-3.5,4.2c-1.2,0.6-2.5,0.8-3.7,0.8h-0.4c-3.6,0-6.3-1.5-8.1-4.6c-0.8-1.5-1.2-3-1.2-4.7
	c0-3,1.2-5.5,3.5-7.4C89.8,16.5,91.5,16,93.2,16z M110.6,15.8h0.3c1.9,0,3.1,0.8,3.8,2.5c0.1,0.5,0.2,1,0.2,1.4v0.1
	c0,1.2-0.1,1.8-0.3,1.8h-1.5c-1.7,0-2.7,0.2-2.9,0.5l-0.1,0.4v0.1c0,1.3,1,2,2.9,2.3l0.8,0c1.5,0,2.6-0.6,3.2-1.9l0.1-0.6
	c0-0.5-0.2-0.8-0.6-0.9h-0.1c-0.1,0-0.1,0.3-0.2,0.8c-0.2,0.2-0.4,0.2-0.5,0.2h-0.1c-0.3,0-0.5-0.2-0.5-0.5c0-1.5,0.4-3,1.2-4.5
	c0.8-1,1.6-1.5,2.6-1.5h0.3c2.2,0,3.7,1.4,4.7,4.2c0.2,0.8,0.3,1.4,0.3,1.8c0,3.3-1.3,5.6-3.9,6.8c-0.6,0.2-1,0.3-1.4,0.3h-0.3
	c-0.7-0.1-1-0.3-1-0.6v-0.2c0-0.5,0.2-0.7,0.6-0.9h0.2c0.3,0,0.5,0.2,0.7,0.7l0.2,0h0.2c0.9,0,1.6-1,2.1-2.9l0.1-1.5
	c0-1.8-0.5-3.3-1.6-4.4c-0.5-0.4-1-0.6-1.6-0.6h0c-1.1,0-1.7,0.5-2,1.6v0.1h0.2c1.2,0,1.9,0.6,2.2,1.7l0.1,0.9v0.3
	c0,2-1.3,3.5-3.8,4.3c-0.7,0.1-1.4,0.2-1.9,0.2c-2.4,0-4.1-1-5.2-3c-0.3-0.7-0.4-1.2-0.4-1.6c0-1.6,1-2.7,3-3.2l1-0.1h1.9l0.2,0
	c0.1-0.4,0.2-0.7,0.2-1v-0.3c0-0.7-0.4-1.3-1.1-1.7l-0.9-0.2c-0.7,0.1-1.1,0.4-1.1,0.9v0.2c0.1,0.6,0.4,0.9,0.9,0.9h0.3
	c0.4-0.1,0.6-0.2,0.6-0.3v-0.1l-0.4,0c-0.2-0.1-0.3-0.2-0.3-0.4v-0.2c0-0.3,0.2-0.5,0.7-0.5c0.4,0,0.6,0.3,0.7,0.9v0.1
	c0,0.9-0.7,1.4-2.2,1.7l-1.1,0.1c-1.1,0-1.9-0.2-2.3-0.7c-0.3-0.4-0.4-0.8-0.4-1.4c0-1,0.6-1.8,1.9-2.4
	C109.7,15.9,110.2,15.8,110.6,15.8z M130.1,15.9c2.3,0,4.1,0.9,5.4,2.7c0.6,1,0.9,2.1,0.9,3.3v0.4c0,1.8-0.8,3.4-2.3,4.8
	c-1.1,0.8-2.3,1.2-3.8,1.2c-2.9,0-4.7-1.3-5.7-3.8c-0.2-0.7-0.2-1.2-0.2-1.7v-0.6c0-1.4,0.5-2.8,1.4-4.2
	C126.9,16.6,128.4,15.9,130.1,15.9z M126.6,19.3L126.6,19.3c0,0.6,0.5,1.1,1.6,1.3c0.4,0,0.8-0.2,1.1-0.5v-0.2l-0.1-0.1
	c-0.1,0.2-0.3,0.2-0.6,0.2c-0.5-0.1-0.7-0.4-0.7-0.6v-0.1c0-0.3,0.2-0.5,0.7-0.5h0.1c1,0.1,1.5,0.6,1.5,1.3v0.1c0,1-0.6,1.7-1.7,2.2
	l-0.4,0h-0.3c-0.6,0-1.2-0.3-1.8-0.9c-0.3-0.4-0.4-0.7-0.4-0.8h0l0,0.5c0.2,1.1,0.5,1.9,0.9,2.4c0.6,0.7,1.7,1,3.4,1h0.2
	c1.6,0,2.9-0.5,3.9-1.5c0.4-0.5,0.6-1.1,0.6-1.7v-0.1c0-1.1-0.5-2.2-1.5-3.3c-0.8-0.8-1.8-1.1-2.9-1.1c-1.6,0-2.8,0.7-3.5,2
	L126.6,19.3z M148.4,16.2c1.3,0,2.2,0.6,2.7,1.9l0.1,0.9c0,0.8-0.5,1.4-1.4,1.7l-0.7,0.1h-0.2c-1.3,0-2.2-0.4-2.7-1.1l-0.1-0.7
	c0.1-0.6,0.4-0.9,0.9-0.9c0.3,0,0.5,0.2,0.6,0.7c0,0.2-0.1,0.4-0.2,0.5h-0.5v0c0,0.1,0.2,0.2,0.6,0.3c0.5,0,0.8-0.3,0.9-0.9
	c0-0.7-0.3-1.1-0.9-1.1c-1.1,0-1.8,0.7-2.3,2l0,0.5v0.2c0,0.4,0,0.5,0.1,0.5h3c1.4,0,2.3,0.7,2.7,2c0.1,0.5,0.1,0.9,0.1,1.2v0.1
	c0,1.9-0.9,3.2-2.8,3.9c-0.3,0.1-0.8,0.1-1.3,0.1c-1.3,0-2.2-0.4-2.8-1.3c-0.5,0.9-1.5,1.3-3,1.3c-1.9,0-3.2-1-3.8-2.9l-0.1-0.8
	c0-0.9,0.4-1.7,1.1-2.5h-1.5c-0.1,0-0.1-0.1-0.1-0.3V21l0.1-0.1l5.4,0h0.8l0.1-0.8c0-0.7-0.4-1.5-1.3-2.2c-0.4-0.2-0.8-0.3-1.1-0.3
	c-0.8,0-1.1,0.4-1.1,1c0,0.6,0.3,0.9,1,1c0.3,0,0.6-0.1,0.8-0.3v0H141c-0.3,0-0.4-0.2-0.4-0.5c0.1-0.4,0.3-0.6,0.5-0.6h0.2
	c0.4,0,0.6,0.3,0.7,0.9c0,0.8-0.5,1.3-1.5,1.6c-0.3,0.1-0.7,0.1-1,0.1h-0.1c-1.4,0-2.2-0.3-2.5-0.9c-0.2-0.4-0.3-0.7-0.3-1.1
	c0-1.1,0.6-1.9,1.8-2.4c0.4-0.1,0.6-0.1,0.9-0.1h0.6c1.3,0,2.4,0.6,3.3,1.9c0.5,0.8,0.8,1.8,0.8,2.9l0,1c0,0.1-1.2,0.2-3.6,0.2
	c-0.8,0-1.5,0.3-1.9,1l0,0.2v0.2c0,0.7,0.8,1.2,2.4,1.4h0.1c1,0,1.8-0.3,2.4-0.9v-0.1l-0.1-0.4c0-0.3,0.2-0.5,0.6-0.5h0.1
	c0.3,0,0.5,0.1,0.7,0.3c0,0.3,0,0.5-0.1,0.6c0.4,0.7,1.2,1,2.3,1h0.3c1.4,0,2.2-0.5,2.5-1.6v-0.2c0-0.5-0.3-0.9-0.9-1.1l-0.8-0.1
	l-2.6,0c-0.9,0-1.3,0-1.3-0.1v-1.2c0-2.1,0.9-3.5,2.8-4.2C147.2,16.4,147.7,16.3,148.4,16.2z M162.9,16.3h0.3c1.2,0,2.1,0.6,2.6,1.9
	l0.1,0.8c0,1-0.7,1.7-2,1.8h-0.5c-1,0-1.8-0.3-2.4-0.9c-0.1-0.2-0.2-0.5-0.2-0.9V19c0-0.4,0.2-0.7,0.7-0.8h0.2
	c0.3,0,0.5,0.2,0.5,0.7c0,0.3-0.2,0.5-0.4,0.5h-0.1l0,0l-0.1,0c0.1,0.2,0.4,0.3,0.6,0.3c0.6-0.1,0.9-0.4,0.9-0.8v-0.1
	c0-0.7-0.3-1.1-0.9-1.1c-0.9,0-1.7,0.6-2.2,1.8c-0.1,0.3-0.1,0.6-0.1,0.8l0.1,0.6h2.7c1.5,0,2.5,0.5,2.9,1.5
	c0.2,0.5,0.3,1.1,0.3,1.7v0.2c0,1.7-0.8,2.9-2.5,3.7c-0.4,0.2-0.8,0.2-1.4,0.2h-0.3c-1.3,0-2.2-0.4-2.8-1.3c0,0.3-0.5,0.7-1.4,1.1
	c-0.5,0.1-0.9,0.2-1.4,0.2h-0.4c-1.5,0-2.6-0.9-3.3-2.6c-0.4-0.8-0.6-1.7-0.6-2.7c0-1.5,0.6-2.9,1.9-4c0.7-0.6,1.4-0.8,2.1-0.8h0.5
	c1,0,1.8,0.5,2.3,1.6c0.1,0.3,0.2,0.7,0.2,1.1V21c0,0.8-0.3,1.3-1,1.6c-0.3,0.1-0.6,0.1-0.8,0.1c-0.7,0-1.1-0.5-1.2-1.4
	c0-0.3,0.2-0.5,0.6-0.6h0c0.4,0,0.6,0.3,0.7,0.9l-0.2,0.5l0.2,0h0.1c0.3-0.1,0.5-0.2,0.5-0.5c-0.2-0.9-0.6-1.4-1.4-1.4l-0.2,0
	c-1.3,0-2.3,0.6-3,1.9c-0.2,0.4-0.2,0.8-0.2,1.1c0,0.8,0.5,1.3,1.5,1.7c0.5,0.1,0.9,0.1,1.2,0.1h0.1c0.9,0,1.7-0.3,2.3-0.8l0-0.2
	l-0.1-0.4c0-0.3,0.2-0.5,0.7-0.5c0.4,0,0.7,0.2,0.8,0.5l-0.1,0.5c0.5,0.7,1.2,1,2.4,1c1.6,0,2.4-0.5,2.7-1.6l0-0.2
	c0-0.7-0.5-1.1-1.5-1.2h-3.5c-0.4,0-0.6-0.1-0.6-0.3v-0.9c0-2.2,0.9-3.6,2.8-4.3C161.9,16.4,162.4,16.3,162.9,16.3z M169.4,16.4
	c2.2,0,3.6,1.7,4.2,5.2l0.1,1.2c0,2.7-1,4.4-2.9,5.3c-0.6,0.2-1.1,0.2-1.6,0.2c-1.4,0-2.3-0.6-2.8-1.9c-0.1-0.3-0.2-0.7-0.2-1.1
	c0-1.3,0.5-2.2,1.6-2.8l0.6-0.1h0.1c0.8,0.2,1.2,0.6,1.2,1.2v0.3c-0.1,0.6-0.3,0.9-0.7,0.9h-0.3c-0.4,0-0.6-0.3-0.7-0.9v-0.2
	l0.1-0.6h0c-0.3,0-0.6,0.3-0.7,1c0,0.7,0.5,1.2,1.4,1.3c1.2,0,2.1-1.1,2.6-3.2l0-0.7v-0.2l0-0.2c0-1-0.3-2-0.8-3.1
	c-0.5-0.6-1.1-0.9-1.7-0.9c-0.9,0.2-1.4,0.4-1.4,0.7h0c0.2,0,0.4,0.2,0.6,0.6v0c-0.1,0.6-0.4,0.9-0.8,0.9h-0.4
	c-0.4,0-0.7-0.3-0.7-0.9c0-1,0.7-1.8,2-2.2L169.4,16.4z"/>
</svg>
